<?xml version="1.0" standalone="no"?>
<!DOCTYPE svg PUBLIC "-//W3C//DTD SVG 1.1//EN" "http://www.w3.org/Graphics/SVG/1.1/DTD/svg11.dtd">
<svg width="800" height="600" version="1.1" xmlns="http://www.w3.org/2000/svg">
<rect width="800" height="600" x="0" y="0" style="fill:rgb(238,238,238);stroke:none"/>
<rect width="800" height="600" x="0" y="0" style="fill:rgb(255,255,255);stroke:none"/>
<text x="2" y="566" fill="rgb(0,0,0)" font-family="Arial" font-size="12">0</text>
<text x="2" y="514" fill="rgb(0,0,0)" font-family="Arial" font-size="12">10</text>
<text x="2" y="462" fill="rgb(0,0,0)" font-family="Arial" font-size="12">20</text>
<text x="2" y="410" fill="rgb(0,0,0)" font-family="Arial" font-size="12">30</text>
<text x="2" y="358" fill="rgb(0,0,0)" font-family="Arial" font-size="12">40</text>
<text x="2" y="306" fill="rgb(0,0,0)" font-family="Arial" font-size="12">50</text>
<text x="2" y="254" fill="rgb(0,0,0)" font-family="Arial" font-size="12">60</text>
<text x="2" y="202" fill="rgb(0,0,0)" font-family="Arial" font-size="12">70</text>
<text x="2" y="150" fill="rgb(0,0,0)" font-family="Arial" font-size="12">80</text>
<text x="2" y="98" fill="rgb(0,0,0)" font-family="Arial" font-size="12">90</text>
<text x="2" y="46" fill="rgb(0,0,0)" font-family="Arial" font-size="12">100</text>
<text x="377" y="30" fill="rgb(0,0,0)" font-family="Arial" font-size="12">% Adapter</text>
<line x1="29" y1="560" x2="790" y2="560" stroke="rgb(0,0,0)" stroke-width="1"/>
<line x1="29" y1="560" x2="29" y2="40" stroke="rgb(0,0,0)" stroke-width="1"/>
<text x="336" y="595" fill="rgb(0,0,0)" font-family="Arial" font-size="12">Position in read (bp)</text>
<text x="39" y="575" fill="rgb(0,0,0)" font-family="Arial" font-size="12">1</text>
<rect width="28" height="520" x="57" y="40" style="fill:rgb(230,230,230);stroke:none"/>
<text x="67" y="575" fill="rgb(0,0,0)" font-family="Arial" font-size="12">2</text>
<text x="95" y="575" fill="rgb(0,0,0)" font-family="Arial" font-size="12">3</text>
<rect width="28" height="520" x="113" y="40" style="fill:rgb(230,230,230);stroke:none"/>
<text x="123" y="575" fill="rgb(0,0,0)" font-family="Arial" font-size="12">4</text>
<text x="151" y="575" fill="rgb(0,0,0)" font-family="Arial" font-size="12">5</text>
<rect width="28" height="520" x="169" y="40" style="fill:rgb(230,230,230);stroke:none"/>
<text x="179" y="575" fill="rgb(0,0,0)" font-family="Arial" font-size="12">6</text>
<text x="207" y="575" fill="rgb(0,0,0)" font-family="Arial" font-size="12">7</text>
<rect width="28" height="520" x="225" y="40" style="fill:rgb(230,230,230);stroke:none"/>
<text x="235" y="575" fill="rgb(0,0,0)" font-family="Arial" font-size="12">8</text>
<text x="263" y="575" fill="rgb(0,0,0)" font-family="Arial" font-size="12">9</text>
<rect width="28" height="520" x="281" y="40" style="fill:rgb(230,230,230);stroke:none"/>
<text x="287" y="575" fill="rgb(0,0,0)" font-family="Arial" font-size="12">10</text>
<text x="315" y="575" fill="rgb(0,0,0)" font-family="Arial" font-size="12">11</text>
<rect width="28" height="520" x="337" y="40" style="fill:rgb(230,230,230);stroke:none"/>
<text x="343" y="575" fill="rgb(0,0,0)" font-family="Arial" font-size="12">12</text>
<text x="371" y="575" fill="rgb(0,0,0)" font-family="Arial" font-size="12">13</text>
<rect width="28" height="520" x="393" y="40" style="fill:rgb(230,230,230);stroke:none"/>
<text x="399" y="575" fill="rgb(0,0,0)" font-family="Arial" font-size="12">14</text>
<text x="427" y="575" fill="rgb(0,0,0)" font-family="Arial" font-size="12">15</text>
<rect width="28" height="520" x="449" y="40" style="fill:rgb(230,230,230);stroke:none"/>
<text x="455" y="575" fill="rgb(0,0,0)" font-family="Arial" font-size="12">16</text>
<text x="483" y="575" fill="rgb(0,0,0)" font-family="Arial" font-size="12">17</text>
<rect width="28" height="520" x="505" y="40" style="fill:rgb(230,230,230);stroke:none"/>
<text x="511" y="575" fill="rgb(0,0,0)" font-family="Arial" font-size="12">18</text>
<text x="539" y="575" fill="rgb(0,0,0)" font-family="Arial" font-size="12">19</text>
<rect width="28" height="520" x="561" y="40" style="fill:rgb(230,230,230);stroke:none"/>
<text x="567" y="575" fill="rgb(0,0,0)" font-family="Arial" font-size="12">20</text>
<text x="595" y="575" fill="rgb(0,0,0)" font-family="Arial" font-size="12">21</text>
<rect width="28" height="520" x="617" y="40" style="fill:rgb(230,230,230);stroke:none"/>
<text x="623" y="575" fill="rgb(0,0,0)" font-family="Arial" font-size="12">22</text>
<text x="651" y="575" fill="rgb(0,0,0)" font-family="Arial" font-size="12">23</text>
<rect width="28" height="520" x="673" y="40" style="fill:rgb(230,230,230);stroke:none"/>
<text x="679" y="575" fill="rgb(0,0,0)" font-family="Arial" font-size="12">24</text>
<text x="707" y="575" fill="rgb(0,0,0)" font-family="Arial" font-size="12">25</text>
<rect width="28" height="520" x="729" y="40" style="fill:rgb(230,230,230);stroke:none"/>
<text x="735" y="575" fill="rgb(0,0,0)" font-family="Arial" font-size="12">26</text>
<text x="763" y="575" fill="rgb(0,0,0)" font-family="Arial" font-size="12">27</text>
<line x1="29" y1="560" x2="790" y2="560" stroke="rgb(180,180,180)" stroke-width="1"/>
<line x1="29" y1="508" x2="790" y2="508" stroke="rgb(180,180,180)" stroke-width="1"/>
<line x1="29" y1="456" x2="790" y2="456" stroke="rgb(180,180,180)" stroke-width="1"/>
<line x1="29" y1="404" x2="790" y2="404" stroke="rgb(180,180,180)" stroke-width="1"/>
<line x1="29" y1="352" x2="790" y2="352" stroke="rgb(180,180,180)" stroke-width="1"/>
<line x1="29" y1="300" x2="790" y2="300" stroke="rgb(180,180,180)" stroke-width="1"/>
<line x1="29" y1="248" x2="790" y2="248" stroke="rgb(180,180,180)" stroke-width="1"/>
<line x1="29" y1="196" x2="790" y2="196" stroke="rgb(180,180,180)" stroke-width="1"/>
<line x1="29" y1="144" x2="790" y2="144" stroke="rgb(180,180,180)" stroke-width="1"/>
<line x1="29" y1="92" x2="790" y2="92" stroke="rgb(180,180,180)" stroke-width="1"/>
<line x1="29" y1="40" x2="790" y2="40" stroke="rgb(180,180,180)" stroke-width="1"/>
<line x1="43" y1="560" x2="71" y2="560" stroke="rgb(136,34,85)" stroke-width="1"/>
<line x1="71" y1="560" x2="99" y2="560" stroke="rgb(136,34,85)" stroke-width="1"/>
<line x1="99" y1="560" x2="127" y2="560" stroke="rgb(136,34,85)" stroke-width="1"/>
<line x1="127" y1="560" x2="155" y2="560" stroke="rgb(136,34,85)" stroke-width="1"/>
<line x1="155" y1="560" x2="183" y2="560" stroke="rgb(136,34,85)" stroke-width="1"/>
<line x1="183" y1="560" x2="211" y2="560" stroke="rgb(136,34,85)" stroke-width="1"/>
<line x1="211" y1="560" x2="239" y2="560" stroke="rgb(136,34,85)" stroke-width="1"/>
<line x1="239" y1="560" x2="267" y2="560" stroke="rgb(136,34,85)" stroke-width="1"/>
<line x1="267" y1="560" x2="295" y2="560" stroke="rgb(136,34,85)" stroke-width="1"/>
<line x1="295" y1="560" x2="323" y2="560" stroke="rgb(136,34,85)" stroke-width="1"/>
<line x1="323" y1="560" x2="351" y2="560" stroke="rgb(136,34,85)" stroke-width="1"/>
<line x1="351" y1="560" x2="379" y2="560" stroke="rgb(136,34,85)" stroke-width="1"/>
<line x1="379" y1="560" x2="407" y2="560" stroke="rgb(136,34,85)" stroke-width="1"/>
<line x1="407" y1="560" x2="435" y2="560" stroke="rgb(136,34,85)" stroke-width="1"/>
<line x1="435" y1="560" x2="463" y2="560" stroke="rgb(136,34,85)" stroke-width="1"/>
<line x1="463" y1="560" x2="491" y2="560" stroke="rgb(136,34,85)" stroke-width="1"/>
<line x1="491" y1="560" x2="519" y2="560" stroke="rgb(136,34,85)" stroke-width="1"/>
<line x1="519" y1="560" x2="547" y2="560" stroke="rgb(136,34,85)" stroke-width="1"/>
<line x1="547" y1="560" x2="575" y2="560" stroke="rgb(136,34,85)" stroke-width="1"/>
<line x1="575" y1="560" x2="603" y2="560" stroke="rgb(136,34,85)" stroke-width="1"/>
<line x1="603" y1="560" x2="631" y2="560" stroke="rgb(136,34,85)" stroke-width="1"/>
<line x1="631" y1="560" x2="659" y2="560" stroke="rgb(136,34,85)" stroke-width="1"/>
<line x1="659" y1="560" x2="687" y2="560" stroke="rgb(136,34,85)" stroke-width="1"/>
<line x1="687" y1="560" x2="715" y2="560" stroke="rgb(136,34,85)" stroke-width="1"/>
<line x1="715" y1="560" x2="743" y2="560" stroke="rgb(136,34,85)" stroke-width="1"/>
<line x1="743" y1="560" x2="771" y2="560" stroke="rgb(136,34,85)" stroke-width="1"/>
<line x1="43" y1="560" x2="71" y2="560" stroke="rgb(51,34,136)" stroke-width="1"/>
<line x1="71" y1="560" x2="99" y2="560" stroke="rgb(51,34,136)" stroke-width="1"/>
<line x1="99" y1="560" x2="127" y2="560" stroke="rgb(51,34,136)" stroke-width="1"/>
<line x1="127" y1="560" x2="155" y2="560" stroke="rgb(51,34,136)" stroke-width="1"/>
<line x1="155" y1="560" x2="183" y2="560" stroke="rgb(51,34,136)" stroke-width="1"/>
<line x1="183" y1="560" x2="211" y2="560" stroke="rgb(51,34,136)" stroke-width="1"/>
<line x1="211" y1="560" x2="239" y2="560" stroke="rgb(51,34,136)" stroke-width="1"/>
<line x1="239" y1="560" x2="267" y2="560" stroke="rgb(51,34,136)" stroke-width="1"/>
<line x1="267" y1="560" x2="295" y2="560" stroke="rgb(51,34,136)" stroke-width="1"/>
<line x1="295" y1="560" x2="323" y2="560" stroke="rgb(51,34,136)" stroke-width="1"/>
<line x1="323" y1="560" x2="351" y2="560" stroke="rgb(51,34,136)" stroke-width="1"/>
<line x1="351" y1="560" x2="379" y2="560" stroke="rgb(51,34,136)" stroke-width="1"/>
<line x1="379" y1="560" x2="407" y2="560" stroke="rgb(51,34,136)" stroke-width="1"/>
<line x1="407" y1="560" x2="435" y2="560" stroke="rgb(51,34,136)" stroke-width="1"/>
<line x1="435" y1="560" x2="463" y2="560" stroke="rgb(51,34,136)" stroke-width="1"/>
<line x1="463" y1="560" x2="491" y2="560" stroke="rgb(51,34,136)" stroke-width="1"/>
<line x1="491" y1="560" x2="519" y2="560" stroke="rgb(51,34,136)" stroke-width="1"/>
<line x1="519" y1="560" x2="547" y2="560" stroke="rgb(51,34,136)" stroke-width="1"/>
<line x1="547" y1="560" x2="575" y2="560" stroke="rgb(51,34,136)" stroke-width="1"/>
<line x1="575" y1="560" x2="603" y2="560" stroke="rgb(51,34,136)" stroke-width="1"/>
<line x1="603" y1="560" x2="631" y2="560" stroke="rgb(51,34,136)" stroke-width="1"/>
<line x1="631" y1="560" x2="659" y2="560" stroke="rgb(51,34,136)" stroke-width="1"/>
<line x1="659" y1="560" x2="687" y2="560" stroke="rgb(51,34,136)" stroke-width="1"/>
<line x1="687" y1="560" x2="715" y2="560" stroke="rgb(51,34,136)" stroke-width="1"/>
<line x1="715" y1="560" x2="743" y2="560" stroke="rgb(51,34,136)" stroke-width="1"/>
<line x1="743" y1="560" x2="771" y2="560" stroke="rgb(51,34,136)" stroke-width="1"/>
<line x1="43" y1="560" x2="71" y2="560" stroke="rgb(17,119,51)" stroke-width="1"/>
<line x1="71" y1="560" x2="99" y2="560" stroke="rgb(17,119,51)" stroke-width="1"/>
<line x1="99" y1="560" x2="127" y2="560" stroke="rgb(17,119,51)" stroke-width="1"/>
<line x1="127" y1="560" x2="155" y2="560" stroke="rgb(17,119,51)" stroke-width="1"/>
<line x1="155" y1="560" x2="183" y2="560" stroke="rgb(17,119,51)" stroke-width="1"/>
<line x1="183" y1="560" x2="211" y2="560" stroke="rgb(17,119,51)" stroke-width="1"/>
<line x1="211" y1="560" x2="239" y2="560" stroke="rgb(17,119,51)" stroke-width="1"/>
<line x1="239" y1="560" x2="267" y2="560" stroke="rgb(17,119,51)" stroke-width="1"/>
<line x1="267" y1="560" x2="295" y2="560" stroke="rgb(17,119,51)" stroke-width="1"/>
<line x1="295" y1="560" x2="323" y2="560" stroke="rgb(17,119,51)" stroke-width="1"/>
<line x1="323" y1="560" x2="351" y2="560" stroke="rgb(17,119,51)" stroke-width="1"/>
<line x1="351" y1="560" x2="379" y2="560" stroke="rgb(17,119,51)" stroke-width="1"/>
<line x1="379" y1="560" x2="407" y2="560" stroke="rgb(17,119,51)" stroke-width="1"/>
<line x1="407" y1="560" x2="435" y2="560" stroke="rgb(17,119,51)" stroke-width="1"/>
<line x1="435" y1="560" x2="463" y2="560" stroke="rgb(17,119,51)" stroke-width="1"/>
<line x1="463" y1="560" x2="491" y2="560" stroke="rgb(17,119,51)" stroke-width="1"/>
<line x1="491" y1="560" x2="519" y2="560" stroke="rgb(17,119,51)" stroke-width="1"/>
<line x1="519" y1="560" x2="547" y2="560" stroke="rgb(17,119,51)" stroke-width="1"/>
<line x1="547" y1="560" x2="575" y2="560" stroke="rgb(17,119,51)" stroke-width="1"/>
<line x1="575" y1="560" x2="603" y2="560" stroke="rgb(17,119,51)" stroke-width="1"/>
<line x1="603" y1="560" x2="631" y2="560" stroke="rgb(17,119,51)" stroke-width="1"/>
<line x1="631" y1="560" x2="659" y2="560" stroke="rgb(17,119,51)" stroke-width="1"/>
<line x1="659" y1="560" x2="687" y2="560" stroke="rgb(17,119,51)" stroke-width="1"/>
<line x1="687" y1="560" x2="715" y2="560" stroke="rgb(17,119,51)" stroke-width="1"/>
<line x1="715" y1="560" x2="743" y2="560" stroke="rgb(17,119,51)" stroke-width="1"/>
<line x1="743" y1="560" x2="771" y2="560" stroke="rgb(17,119,51)" stroke-width="1"/>
<line x1="43" y1="560" x2="71" y2="560" stroke="rgb(221,204,119)" stroke-width="1"/>
<line x1="71" y1="560" x2="99" y2="560" stroke="rgb(221,204,119)" stroke-width="1"/>
<line x1="99" y1="560" x2="127" y2="560" stroke="rgb(221,204,119)" stroke-width="1"/>
<line x1="127" y1="560" x2="155" y2="560" stroke="rgb(221,204,119)" stroke-width="1"/>
<line x1="155" y1="560" x2="183" y2="560" stroke="rgb(221,204,119)" stroke-width="1"/>
<line x1="183" y1="560" x2="211" y2="560" stroke="rgb(221,204,119)" stroke-width="1"/>
<line x1="211" y1="560" x2="239" y2="560" stroke="rgb(221,204,119)" stroke-width="1"/>
<line x1="239" y1="560" x2="267" y2="560" stroke="rgb(221,204,119)" stroke-width="1"/>
<line x1="267" y1="560" x2="295" y2="560" stroke="rgb(221,204,119)" stroke-width="1"/>
<line x1="295" y1="560" x2="323" y2="560" stroke="rgb(221,204,119)" stroke-width="1"/>
<line x1="323" y1="560" x2="351" y2="560" stroke="rgb(221,204,119)" stroke-width="1"/>
<line x1="351" y1="560" x2="379" y2="560" stroke="rgb(221,204,119)" stroke-width="1"/>
<line x1="379" y1="560" x2="407" y2="560" stroke="rgb(221,204,119)" stroke-width="1"/>
<line x1="407" y1="560" x2="435" y2="560" stroke="rgb(221,204,119)" stroke-width="1"/>
<line x1="435" y1="560" x2="463" y2="560" stroke="rgb(221,204,119)" stroke-width="1"/>
<line x1="463" y1="560" x2="491" y2="560" stroke="rgb(221,204,119)" stroke-width="1"/>
<line x1="491" y1="560" x2="519" y2="560" stroke="rgb(221,204,119)" stroke-width="1"/>
<line x1="519" y1="560" x2="547" y2="560" stroke="rgb(221,204,119)" stroke-width="1"/>
<line x1="547" y1="560" x2="575" y2="560" stroke="rgb(221,204,119)" stroke-width="1"/>
<line x1="575" y1="560" x2="603" y2="560" stroke="rgb(221,204,119)" stroke-width="1"/>
<line x1="603" y1="560" x2="631" y2="560" stroke="rgb(221,204,119)" stroke-width="1"/>
<line x1="631" y1="560" x2="659" y2="560" stroke="rgb(221,204,119)" stroke-width="1"/>
<line x1="659" y1="560" x2="687" y2="560" stroke="rgb(221,204,119)" stroke-width="1"/>
<line x1="687" y1="560" x2="715" y2="560" stroke="rgb(221,204,119)" stroke-width="1"/>
<line x1="715" y1="560" x2="743" y2="560" stroke="rgb(221,204,119)" stroke-width="1"/>
<line x1="743" y1="560" x2="771" y2="560" stroke="rgb(221,204,119)" stroke-width="1"/>
<line x1="43" y1="559" x2="71" y2="559" stroke="rgb(68,170,153)" stroke-width="1"/>
<line x1="71" y1="559" x2="99" y2="559" stroke="rgb(68,170,153)" stroke-width="1"/>
<line x1="99" y1="559" x2="127" y2="559" stroke="rgb(68,170,153)" stroke-width="1"/>
<line x1="127" y1="559" x2="155" y2="559" stroke="rgb(68,170,153)" stroke-width="1"/>
<line x1="155" y1="559" x2="183" y2="559" stroke="rgb(68,170,153)" stroke-width="1"/>
<line x1="183" y1="559" x2="211" y2="559" stroke="rgb(68,170,153)" stroke-width="1"/>
<line x1="211" y1="559" x2="239" y2="559" stroke="rgb(68,170,153)" stroke-width="1"/>
<line x1="239" y1="559" x2="267" y2="559" stroke="rgb(68,170,153)" stroke-width="1"/>
<line x1="267" y1="559" x2="295" y2="559" stroke="rgb(68,170,153)" stroke-width="1"/>
<line x1="295" y1="559" x2="323" y2="559" stroke="rgb(68,170,153)" stroke-width="1"/>
<line x1="323" y1="559" x2="351" y2="559" stroke="rgb(68,170,153)" stroke-width="1"/>
<line x1="351" y1="559" x2="379" y2="559" stroke="rgb(68,170,153)" stroke-width="1"/>
<line x1="379" y1="559" x2="407" y2="559" stroke="rgb(68,170,153)" stroke-width="1"/>
<line x1="407" y1="559" x2="435" y2="559" stroke="rgb(68,170,153)" stroke-width="1"/>
<line x1="435" y1="559" x2="463" y2="559" stroke="rgb(68,170,153)" stroke-width="1"/>
<line x1="463" y1="559" x2="491" y2="559" stroke="rgb(68,170,153)" stroke-width="1"/>
<line x1="491" y1="559" x2="519" y2="558" stroke="rgb(68,170,153)" stroke-width="1"/>
<line x1="519" y1="558" x2="547" y2="558" stroke="rgb(68,170,153)" stroke-width="1"/>
<line x1="547" y1="558" x2="575" y2="558" stroke="rgb(68,170,153)" stroke-width="1"/>
<line x1="575" y1="558" x2="603" y2="558" stroke="rgb(68,170,153)" stroke-width="1"/>
<line x1="603" y1="558" x2="631" y2="558" stroke="rgb(68,170,153)" stroke-width="1"/>
<line x1="631" y1="558" x2="659" y2="558" stroke="rgb(68,170,153)" stroke-width="1"/>
<line x1="659" y1="558" x2="687" y2="558" stroke="rgb(68,170,153)" stroke-width="1"/>
<line x1="687" y1="558" x2="715" y2="558" stroke="rgb(68,170,153)" stroke-width="1"/>
<line x1="715" y1="558" x2="743" y2="558" stroke="rgb(68,170,153)" stroke-width="1"/>
<line x1="743" y1="558" x2="771" y2="558" stroke="rgb(68,170,153)" stroke-width="1"/>
<line x1="43" y1="560" x2="71" y2="560" stroke="rgb(170,68,153)" stroke-width="1"/>
<line x1="71" y1="560" x2="99" y2="560" stroke="rgb(170,68,153)" stroke-width="1"/>
<line x1="99" y1="560" x2="127" y2="560" stroke="rgb(170,68,153)" stroke-width="1"/>
<line x1="127" y1="560" x2="155" y2="560" stroke="rgb(170,68,153)" stroke-width="1"/>
<line x1="155" y1="560" x2="183" y2="560" stroke="rgb(170,68,153)" stroke-width="1"/>
<line x1="183" y1="560" x2="211" y2="560" stroke="rgb(170,68,153)" stroke-width="1"/>
<line x1="211" y1="560" x2="239" y2="560" stroke="rgb(170,68,153)" stroke-width="1"/>
<line x1="239" y1="560" x2="267" y2="560" stroke="rgb(170,68,153)" stroke-width="1"/>
<line x1="267" y1="560" x2="295" y2="560" stroke="rgb(170,68,153)" stroke-width="1"/>
<line x1="295" y1="560" x2="323" y2="560" stroke="rgb(170,68,153)" stroke-width="1"/>
<line x1="323" y1="560" x2="351" y2="560" stroke="rgb(170,68,153)" stroke-width="1"/>
<line x1="351" y1="560" x2="379" y2="560" stroke="rgb(170,68,153)" stroke-width="1"/>
<line x1="379" y1="560" x2="407" y2="560" stroke="rgb(170,68,153)" stroke-width="1"/>
<line x1="407" y1="560" x2="435" y2="560" stroke="rgb(170,68,153)" stroke-width="1"/>
<line x1="435" y1="560" x2="463" y2="560" stroke="rgb(170,68,153)" stroke-width="1"/>
<line x1="463" y1="560" x2="491" y2="560" stroke="rgb(170,68,153)" stroke-width="1"/>
<line x1="491" y1="560" x2="519" y2="560" stroke="rgb(170,68,153)" stroke-width="1"/>
<line x1="519" y1="560" x2="547" y2="560" stroke="rgb(170,68,153)" stroke-width="1"/>
<line x1="547" y1="560" x2="575" y2="560" stroke="rgb(170,68,153)" stroke-width="1"/>
<line x1="575" y1="560" x2="603" y2="560" stroke="rgb(170,68,153)" stroke-width="1"/>
<line x1="603" y1="560" x2="631" y2="560" stroke="rgb(170,68,153)" stroke-width="1"/>
<line x1="631" y1="560" x2="659" y2="560" stroke="rgb(170,68,153)" stroke-width="1"/>
<line x1="659" y1="560" x2="687" y2="560" stroke="rgb(170,68,153)" stroke-width="1"/>
<line x1="687" y1="560" x2="715" y2="560" stroke="rgb(170,68,153)" stroke-width="1"/>
<line x1="715" y1="560" x2="743" y2="560" stroke="rgb(170,68,153)" stroke-width="1"/>
<line x1="743" y1="560" x2="771" y2="560" stroke="rgb(170,68,153)" stroke-width="1"/>
<rect width="232" height="123" x="558" y="40" style="fill:rgb(255,255,255);stroke:none"/>
<rect width="232" height="123" x="558" y="40" rx="0" ry="0" style="fill:none;stroke-width:1;stroke:rgb(192,192,192)"/>
<text x="561" y="55" fill="rgb(136,34,85)" font-family="Arial" font-size="12" font-weight="bold">Illumina Universal Adapter</text>
<text x="561" y="75" fill="rgb(51,34,136)" font-family="Arial" font-size="12" font-weight="bold">Illumina Small RNA 3' Adapter</text>
<text x="561" y="95" fill="rgb(17,119,51)" font-family="Arial" font-size="12" font-weight="bold">Illumina Small RNA 5' Adapter</text>
<text x="561" y="115" fill="rgb(221,204,119)" font-family="Arial" font-size="12" font-weight="bold">Nextera Transposase Sequence</text>
<text x="561" y="135" fill="rgb(68,170,153)" font-family="Arial" font-size="12" font-weight="bold">PolyA</text>
<text x="561" y="155" fill="rgb(170,68,153)" font-family="Arial" font-size="12" font-weight="bold">PolyG</text>
</svg>
