<?xml version="1.0" standalone="no"?>
<!DOCTYPE svg PUBLIC "-//W3C//DTD SVG 1.1//EN" "http://www.w3.org/Graphics/SVG/1.1/DTD/svg11.dtd">
<svg width="800" height="600" version="1.1" xmlns="http://www.w3.org/2000/svg">
<rect width="800" height="600" x="0" y="0" style="fill:rgb(238,238,238);stroke:none"/>
<rect width="800" height="600" x="0" y="0" style="fill:rgb(255,255,255);stroke:none"/>
<text x="2" y="566" fill="rgb(0,0,0)" font-family="Arial" font-size="12">0</text>
<text x="2" y="544" fill="rgb(0,0,0)" font-family="Arial" font-size="12">2</text>
<text x="2" y="522" fill="rgb(0,0,0)" font-family="Arial" font-size="12">4</text>
<text x="2" y="500" fill="rgb(0,0,0)" font-family="Arial" font-size="12">6</text>
<text x="2" y="478" fill="rgb(0,0,0)" font-family="Arial" font-size="12">8</text>
<text x="2" y="456" fill="rgb(0,0,0)" font-family="Arial" font-size="12">10</text>
<text x="2" y="434" fill="rgb(0,0,0)" font-family="Arial" font-size="12">12</text>
<text x="2" y="412" fill="rgb(0,0,0)" font-family="Arial" font-size="12">14</text>
<text x="2" y="389" fill="rgb(0,0,0)" font-family="Arial" font-size="12">16</text>
<text x="2" y="367" fill="rgb(0,0,0)" font-family="Arial" font-size="12">18</text>
<text x="2" y="345" fill="rgb(0,0,0)" font-family="Arial" font-size="12">20</text>
<text x="2" y="323" fill="rgb(0,0,0)" font-family="Arial" font-size="12">22</text>
<text x="2" y="301" fill="rgb(0,0,0)" font-family="Arial" font-size="12">24</text>
<text x="2" y="279" fill="rgb(0,0,0)" font-family="Arial" font-size="12">26</text>
<text x="2" y="257" fill="rgb(0,0,0)" font-family="Arial" font-size="12">28</text>
<text x="2" y="235" fill="rgb(0,0,0)" font-family="Arial" font-size="12">30</text>
<text x="2" y="212" fill="rgb(0,0,0)" font-family="Arial" font-size="12">32</text>
<text x="2" y="190" fill="rgb(0,0,0)" font-family="Arial" font-size="12">34</text>
<text x="2" y="168" fill="rgb(0,0,0)" font-family="Arial" font-size="12">36</text>
<text x="2" y="146" fill="rgb(0,0,0)" font-family="Arial" font-size="12">38</text>
<text x="2" y="124" fill="rgb(0,0,0)" font-family="Arial" font-size="12">40</text>
<text x="2" y="102" fill="rgb(0,0,0)" font-family="Arial" font-size="12">42</text>
<text x="2" y="80" fill="rgb(0,0,0)" font-family="Arial" font-size="12">44</text>
<text x="2" y="58" fill="rgb(0,0,0)" font-family="Arial" font-size="12">46</text>
<text x="206" y="30" fill="rgb(0,0,0)" font-family="Arial" font-size="12">Quality scores across all bases (Sanger / Illumina 1.9 encoding)</text>
<rect width="20" height="221" x="21" y="339" style="fill:rgb(230,175,175);stroke:none"/>
<rect width="20" height="88" x="21" y="251" style="fill:rgb(230,215,175);stroke:none"/>
<rect width="20" height="211" x="21" y="40" style="fill:rgb(175,230,175);stroke:none"/>
<text x="27" y="575" fill="rgb(0,0,0)" font-family="Arial" font-size="12">1</text>
<rect width="20" height="221" x="41" y="339" style="fill:rgb(230,195,195);stroke:none"/>
<rect width="20" height="88" x="41" y="251" style="fill:rgb(230,220,195);stroke:none"/>
<rect width="20" height="211" x="41" y="40" style="fill:rgb(195,230,195);stroke:none"/>
<text x="47" y="575" fill="rgb(0,0,0)" font-family="Arial" font-size="12">2</text>
<rect width="20" height="221" x="61" y="339" style="fill:rgb(230,175,175);stroke:none"/>
<rect width="20" height="88" x="61" y="251" style="fill:rgb(230,215,175);stroke:none"/>
<rect width="20" height="211" x="61" y="40" style="fill:rgb(175,230,175);stroke:none"/>
<text x="67" y="575" fill="rgb(0,0,0)" font-family="Arial" font-size="12">3</text>
<rect width="20" height="221" x="81" y="339" style="fill:rgb(230,195,195);stroke:none"/>
<rect width="20" height="88" x="81" y="251" style="fill:rgb(230,220,195);stroke:none"/>
<rect width="20" height="211" x="81" y="40" style="fill:rgb(195,230,195);stroke:none"/>
<text x="87" y="575" fill="rgb(0,0,0)" font-family="Arial" font-size="12">4</text>
<rect width="20" height="221" x="101" y="339" style="fill:rgb(230,175,175);stroke:none"/>
<rect width="20" height="88" x="101" y="251" style="fill:rgb(230,215,175);stroke:none"/>
<rect width="20" height="211" x="101" y="40" style="fill:rgb(175,230,175);stroke:none"/>
<text x="107" y="575" fill="rgb(0,0,0)" font-family="Arial" font-size="12">5</text>
<rect width="20" height="221" x="121" y="339" style="fill:rgb(230,195,195);stroke:none"/>
<rect width="20" height="88" x="121" y="251" style="fill:rgb(230,220,195);stroke:none"/>
<rect width="20" height="211" x="121" y="40" style="fill:rgb(195,230,195);stroke:none"/>
<text x="127" y="575" fill="rgb(0,0,0)" font-family="Arial" font-size="12">6</text>
<rect width="20" height="221" x="141" y="339" style="fill:rgb(230,175,175);stroke:none"/>
<rect width="20" height="88" x="141" y="251" style="fill:rgb(230,215,175);stroke:none"/>
<rect width="20" height="211" x="141" y="40" style="fill:rgb(175,230,175);stroke:none"/>
<text x="147" y="575" fill="rgb(0,0,0)" font-family="Arial" font-size="12">7</text>
<rect width="20" height="221" x="161" y="339" style="fill:rgb(230,195,195);stroke:none"/>
<rect width="20" height="88" x="161" y="251" style="fill:rgb(230,220,195);stroke:none"/>
<rect width="20" height="211" x="161" y="40" style="fill:rgb(195,230,195);stroke:none"/>
<text x="167" y="575" fill="rgb(0,0,0)" font-family="Arial" font-size="12">8</text>
<rect width="20" height="221" x="181" y="339" style="fill:rgb(230,175,175);stroke:none"/>
<rect width="20" height="88" x="181" y="251" style="fill:rgb(230,215,175);stroke:none"/>
<rect width="20" height="211" x="181" y="40" style="fill:rgb(175,230,175);stroke:none"/>
<text x="187" y="575" fill="rgb(0,0,0)" font-family="Arial" font-size="12">9</text>
<rect width="20" height="221" x="201" y="339" style="fill:rgb(230,195,195);stroke:none"/>
<rect width="20" height="88" x="201" y="251" style="fill:rgb(230,220,195);stroke:none"/>
<rect width="20" height="211" x="201" y="40" style="fill:rgb(195,230,195);stroke:none"/>
<text x="203" y="575" fill="rgb(0,0,0)" font-family="Arial" font-size="12">10</text>
<rect width="20" height="221" x="221" y="339" style="fill:rgb(230,175,175);stroke:none"/>
<rect width="20" height="88" x="221" y="251" style="fill:rgb(230,215,175);stroke:none"/>
<rect width="20" height="211" x="221" y="40" style="fill:rgb(175,230,175);stroke:none"/>
<rect width="20" height="221" x="241" y="339" style="fill:rgb(230,195,195);stroke:none"/>
<rect width="20" height="88" x="241" y="251" style="fill:rgb(230,220,195);stroke:none"/>
<rect width="20" height="211" x="241" y="40" style="fill:rgb(195,230,195);stroke:none"/>
<text x="243" y="575" fill="rgb(0,0,0)" font-family="Arial" font-size="12">12</text>
<rect width="20" height="221" x="261" y="339" style="fill:rgb(230,175,175);stroke:none"/>
<rect width="20" height="88" x="261" y="251" style="fill:rgb(230,215,175);stroke:none"/>
<rect width="20" height="211" x="261" y="40" style="fill:rgb(175,230,175);stroke:none"/>
<rect width="20" height="221" x="281" y="339" style="fill:rgb(230,195,195);stroke:none"/>
<rect width="20" height="88" x="281" y="251" style="fill:rgb(230,220,195);stroke:none"/>
<rect width="20" height="211" x="281" y="40" style="fill:rgb(195,230,195);stroke:none"/>
<text x="283" y="575" fill="rgb(0,0,0)" font-family="Arial" font-size="12">14</text>
<rect width="20" height="221" x="301" y="339" style="fill:rgb(230,175,175);stroke:none"/>
<rect width="20" height="88" x="301" y="251" style="fill:rgb(230,215,175);stroke:none"/>
<rect width="20" height="211" x="301" y="40" style="fill:rgb(175,230,175);stroke:none"/>
<rect width="20" height="221" x="321" y="339" style="fill:rgb(230,195,195);stroke:none"/>
<rect width="20" height="88" x="321" y="251" style="fill:rgb(230,220,195);stroke:none"/>
<rect width="20" height="211" x="321" y="40" style="fill:rgb(195,230,195);stroke:none"/>
<text x="323" y="575" fill="rgb(0,0,0)" font-family="Arial" font-size="12">16</text>
<rect width="20" height="221" x="341" y="339" style="fill:rgb(230,175,175);stroke:none"/>
<rect width="20" height="88" x="341" y="251" style="fill:rgb(230,215,175);stroke:none"/>
<rect width="20" height="211" x="341" y="40" style="fill:rgb(175,230,175);stroke:none"/>
<rect width="20" height="221" x="361" y="339" style="fill:rgb(230,195,195);stroke:none"/>
<rect width="20" height="88" x="361" y="251" style="fill:rgb(230,220,195);stroke:none"/>
<rect width="20" height="211" x="361" y="40" style="fill:rgb(195,230,195);stroke:none"/>
<text x="363" y="575" fill="rgb(0,0,0)" font-family="Arial" font-size="12">18</text>
<rect width="20" height="221" x="381" y="339" style="fill:rgb(230,175,175);stroke:none"/>
<rect width="20" height="88" x="381" y="251" style="fill:rgb(230,215,175);stroke:none"/>
<rect width="20" height="211" x="381" y="40" style="fill:rgb(175,230,175);stroke:none"/>
<rect width="20" height="221" x="401" y="339" style="fill:rgb(230,195,195);stroke:none"/>
<rect width="20" height="88" x="401" y="251" style="fill:rgb(230,220,195);stroke:none"/>
<rect width="20" height="211" x="401" y="40" style="fill:rgb(195,230,195);stroke:none"/>
<text x="403" y="575" fill="rgb(0,0,0)" font-family="Arial" font-size="12">20</text>
<rect width="20" height="221" x="421" y="339" style="fill:rgb(230,175,175);stroke:none"/>
<rect width="20" height="88" x="421" y="251" style="fill:rgb(230,215,175);stroke:none"/>
<rect width="20" height="211" x="421" y="40" style="fill:rgb(175,230,175);stroke:none"/>
<rect width="20" height="221" x="441" y="339" style="fill:rgb(230,195,195);stroke:none"/>
<rect width="20" height="88" x="441" y="251" style="fill:rgb(230,220,195);stroke:none"/>
<rect width="20" height="211" x="441" y="40" style="fill:rgb(195,230,195);stroke:none"/>
<text x="443" y="575" fill="rgb(0,0,0)" font-family="Arial" font-size="12">22</text>
<rect width="20" height="221" x="461" y="339" style="fill:rgb(230,175,175);stroke:none"/>
<rect width="20" height="88" x="461" y="251" style="fill:rgb(230,215,175);stroke:none"/>
<rect width="20" height="211" x="461" y="40" style="fill:rgb(175,230,175);stroke:none"/>
<rect width="20" height="221" x="481" y="339" style="fill:rgb(230,195,195);stroke:none"/>
<rect width="20" height="88" x="481" y="251" style="fill:rgb(230,220,195);stroke:none"/>
<rect width="20" height="211" x="481" y="40" style="fill:rgb(195,230,195);stroke:none"/>
<text x="483" y="575" fill="rgb(0,0,0)" font-family="Arial" font-size="12">24</text>
<rect width="20" height="221" x="501" y="339" style="fill:rgb(230,175,175);stroke:none"/>
<rect width="20" height="88" x="501" y="251" style="fill:rgb(230,215,175);stroke:none"/>
<rect width="20" height="211" x="501" y="40" style="fill:rgb(175,230,175);stroke:none"/>
<rect width="20" height="221" x="521" y="339" style="fill:rgb(230,195,195);stroke:none"/>
<rect width="20" height="88" x="521" y="251" style="fill:rgb(230,220,195);stroke:none"/>
<rect width="20" height="211" x="521" y="40" style="fill:rgb(195,230,195);stroke:none"/>
<text x="523" y="575" fill="rgb(0,0,0)" font-family="Arial" font-size="12">26</text>
<rect width="20" height="221" x="541" y="339" style="fill:rgb(230,175,175);stroke:none"/>
<rect width="20" height="88" x="541" y="251" style="fill:rgb(230,215,175);stroke:none"/>
<rect width="20" height="211" x="541" y="40" style="fill:rgb(175,230,175);stroke:none"/>
<rect width="20" height="221" x="561" y="339" style="fill:rgb(230,195,195);stroke:none"/>
<rect width="20" height="88" x="561" y="251" style="fill:rgb(230,220,195);stroke:none"/>
<rect width="20" height="211" x="561" y="40" style="fill:rgb(195,230,195);stroke:none"/>
<text x="563" y="575" fill="rgb(0,0,0)" font-family="Arial" font-size="12">28</text>
<rect width="20" height="221" x="581" y="339" style="fill:rgb(230,175,175);stroke:none"/>
<rect width="20" height="88" x="581" y="251" style="fill:rgb(230,215,175);stroke:none"/>
<rect width="20" height="211" x="581" y="40" style="fill:rgb(175,230,175);stroke:none"/>
<rect width="20" height="221" x="601" y="339" style="fill:rgb(230,195,195);stroke:none"/>
<rect width="20" height="88" x="601" y="251" style="fill:rgb(230,220,195);stroke:none"/>
<rect width="20" height="211" x="601" y="40" style="fill:rgb(195,230,195);stroke:none"/>
<text x="603" y="575" fill="rgb(0,0,0)" font-family="Arial" font-size="12">30</text>
<rect width="20" height="221" x="621" y="339" style="fill:rgb(230,175,175);stroke:none"/>
<rect width="20" height="88" x="621" y="251" style="fill:rgb(230,215,175);stroke:none"/>
<rect width="20" height="211" x="621" y="40" style="fill:rgb(175,230,175);stroke:none"/>
<rect width="20" height="221" x="641" y="339" style="fill:rgb(230,195,195);stroke:none"/>
<rect width="20" height="88" x="641" y="251" style="fill:rgb(230,220,195);stroke:none"/>
<rect width="20" height="211" x="641" y="40" style="fill:rgb(195,230,195);stroke:none"/>
<text x="643" y="575" fill="rgb(0,0,0)" font-family="Arial" font-size="12">32</text>
<rect width="20" height="221" x="661" y="339" style="fill:rgb(230,175,175);stroke:none"/>
<rect width="20" height="88" x="661" y="251" style="fill:rgb(230,215,175);stroke:none"/>
<rect width="20" height="211" x="661" y="40" style="fill:rgb(175,230,175);stroke:none"/>
<rect width="20" height="221" x="681" y="339" style="fill:rgb(230,195,195);stroke:none"/>
<rect width="20" height="88" x="681" y="251" style="fill:rgb(230,220,195);stroke:none"/>
<rect width="20" height="211" x="681" y="40" style="fill:rgb(195,230,195);stroke:none"/>
<text x="683" y="575" fill="rgb(0,0,0)" font-family="Arial" font-size="12">34</text>
<rect width="20" height="221" x="701" y="339" style="fill:rgb(230,175,175);stroke:none"/>
<rect width="20" height="88" x="701" y="251" style="fill:rgb(230,215,175);stroke:none"/>
<rect width="20" height="211" x="701" y="40" style="fill:rgb(175,230,175);stroke:none"/>
<rect width="20" height="221" x="721" y="339" style="fill:rgb(230,195,195);stroke:none"/>
<rect width="20" height="88" x="721" y="251" style="fill:rgb(230,220,195);stroke:none"/>
<rect width="20" height="211" x="721" y="40" style="fill:rgb(195,230,195);stroke:none"/>
<text x="723" y="575" fill="rgb(0,0,0)" font-family="Arial" font-size="12">36</text>
<rect width="20" height="221" x="741" y="339" style="fill:rgb(230,175,175);stroke:none"/>
<rect width="20" height="88" x="741" y="251" style="fill:rgb(230,215,175);stroke:none"/>
<rect width="20" height="211" x="741" y="40" style="fill:rgb(175,230,175);stroke:none"/>
<rect width="20" height="221" x="761" y="339" style="fill:rgb(230,195,195);stroke:none"/>
<rect width="20" height="88" x="761" y="251" style="fill:rgb(230,220,195);stroke:none"/>
<rect width="20" height="211" x="761" y="40" style="fill:rgb(195,230,195);stroke:none"/>
<text x="763" y="575" fill="rgb(0,0,0)" font-family="Arial" font-size="12">38</text>
<line x1="21" y1="560" x2="790" y2="560" stroke="rgb(0,0,0)" stroke-width="1"/>
<line x1="21" y1="560" x2="21" y2="40" stroke="rgb(0,0,0)" stroke-width="1"/>
<text x="336" y="595" fill="rgb(0,0,0)" font-family="Arial" font-size="12">Position in read (bp)</text>
<rect width="16" height="66" x="23" y="218" style="fill:rgb(240,240,0);stroke:none"/>
<rect width="16" height="66" x="23" y="218" rx="0" ry="0" style="fill:none;stroke-width:1;stroke:rgb(0,0,0)"/>
<line x1="31" y1="206" x2="31" y2="218" stroke="rgb(0,0,0)" stroke-width="1"/>
<line x1="23" y1="206" x2="39" y2="206" stroke="rgb(0,0,0)" stroke-width="1"/>
<line x1="31" y1="306" x2="31" y2="284" stroke="rgb(0,0,0)" stroke-width="1"/>
<line x1="23" y1="306" x2="39" y2="306" stroke="rgb(0,0,0)" stroke-width="1"/>
<line x1="23" y1="284" x2="39" y2="284" stroke="rgb(200,0,0)" stroke-width="1"/>
<rect width="16" height="67" x="43" y="173" style="fill:rgb(240,240,0);stroke:none"/>
<rect width="16" height="67" x="43" y="173" rx="0" ry="0" style="fill:none;stroke-width:1;stroke:rgb(0,0,0)"/>
<line x1="51" y1="151" x2="51" y2="173" stroke="rgb(0,0,0)" stroke-width="1"/>
<line x1="43" y1="151" x2="59" y2="151" stroke="rgb(0,0,0)" stroke-width="1"/>
<line x1="51" y1="284" x2="51" y2="240" stroke="rgb(0,0,0)" stroke-width="1"/>
<line x1="43" y1="284" x2="59" y2="284" stroke="rgb(0,0,0)" stroke-width="1"/>
<line x1="43" y1="206" x2="59" y2="206" stroke="rgb(200,0,0)" stroke-width="1"/>
<rect width="16" height="67" x="63" y="162" style="fill:rgb(240,240,0);stroke:none"/>
<rect width="16" height="67" x="63" y="162" rx="0" ry="0" style="fill:none;stroke-width:1;stroke:rgb(0,0,0)"/>
<line x1="71" y1="151" x2="71" y2="162" stroke="rgb(0,0,0)" stroke-width="1"/>
<line x1="63" y1="151" x2="79" y2="151" stroke="rgb(0,0,0)" stroke-width="1"/>
<line x1="71" y1="284" x2="71" y2="229" stroke="rgb(0,0,0)" stroke-width="1"/>
<line x1="63" y1="284" x2="79" y2="284" stroke="rgb(0,0,0)" stroke-width="1"/>
<line x1="63" y1="206" x2="79" y2="206" stroke="rgb(200,0,0)" stroke-width="1"/>
<rect width="16" height="67" x="83" y="151" style="fill:rgb(240,240,0);stroke:none"/>
<rect width="16" height="67" x="83" y="151" rx="0" ry="0" style="fill:none;stroke-width:1;stroke:rgb(0,0,0)"/>
<line x1="91" y1="129" x2="91" y2="151" stroke="rgb(0,0,0)" stroke-width="1"/>
<line x1="83" y1="129" x2="99" y2="129" stroke="rgb(0,0,0)" stroke-width="1"/>
<line x1="91" y1="273" x2="91" y2="218" stroke="rgb(0,0,0)" stroke-width="1"/>
<line x1="83" y1="273" x2="99" y2="273" stroke="rgb(0,0,0)" stroke-width="1"/>
<line x1="83" y1="184" x2="99" y2="184" stroke="rgb(200,0,0)" stroke-width="1"/>
<rect width="16" height="67" x="103" y="151" style="fill:rgb(240,240,0);stroke:none"/>
<rect width="16" height="67" x="103" y="151" rx="0" ry="0" style="fill:none;stroke-width:1;stroke:rgb(0,0,0)"/>
<line x1="111" y1="129" x2="111" y2="151" stroke="rgb(0,0,0)" stroke-width="1"/>
<line x1="103" y1="129" x2="119" y2="129" stroke="rgb(0,0,0)" stroke-width="1"/>
<line x1="111" y1="273" x2="111" y2="218" stroke="rgb(0,0,0)" stroke-width="1"/>
<line x1="103" y1="273" x2="119" y2="273" stroke="rgb(0,0,0)" stroke-width="1"/>
<line x1="103" y1="184" x2="119" y2="184" stroke="rgb(200,0,0)" stroke-width="1"/>
<rect width="16" height="78" x="123" y="140" style="fill:rgb(240,240,0);stroke:none"/>
<rect width="16" height="78" x="123" y="140" rx="0" ry="0" style="fill:none;stroke-width:1;stroke:rgb(0,0,0)"/>
<line x1="131" y1="129" x2="131" y2="140" stroke="rgb(0,0,0)" stroke-width="1"/>
<line x1="123" y1="129" x2="139" y2="129" stroke="rgb(0,0,0)" stroke-width="1"/>
<line x1="131" y1="262" x2="131" y2="218" stroke="rgb(0,0,0)" stroke-width="1"/>
<line x1="123" y1="262" x2="139" y2="262" stroke="rgb(0,0,0)" stroke-width="1"/>
<line x1="123" y1="173" x2="139" y2="173" stroke="rgb(200,0,0)" stroke-width="1"/>
<rect width="16" height="78" x="143" y="140" style="fill:rgb(240,240,0);stroke:none"/>
<rect width="16" height="78" x="143" y="140" rx="0" ry="0" style="fill:none;stroke-width:1;stroke:rgb(0,0,0)"/>
<line x1="151" y1="129" x2="151" y2="140" stroke="rgb(0,0,0)" stroke-width="1"/>
<line x1="143" y1="129" x2="159" y2="129" stroke="rgb(0,0,0)" stroke-width="1"/>
<line x1="151" y1="273" x2="151" y2="218" stroke="rgb(0,0,0)" stroke-width="1"/>
<line x1="143" y1="273" x2="159" y2="273" stroke="rgb(0,0,0)" stroke-width="1"/>
<line x1="143" y1="173" x2="159" y2="173" stroke="rgb(200,0,0)" stroke-width="1"/>
<rect width="16" height="66" x="163" y="140" style="fill:rgb(240,240,0);stroke:none"/>
<rect width="16" height="66" x="163" y="140" rx="0" ry="0" style="fill:none;stroke-width:1;stroke:rgb(0,0,0)"/>
<line x1="171" y1="118" x2="171" y2="140" stroke="rgb(0,0,0)" stroke-width="1"/>
<line x1="163" y1="118" x2="179" y2="118" stroke="rgb(0,0,0)" stroke-width="1"/>
<line x1="171" y1="284" x2="171" y2="206" stroke="rgb(0,0,0)" stroke-width="1"/>
<line x1="163" y1="284" x2="179" y2="284" stroke="rgb(0,0,0)" stroke-width="1"/>
<line x1="163" y1="173" x2="179" y2="173" stroke="rgb(200,0,0)" stroke-width="1"/>
<rect width="16" height="66" x="183" y="140" style="fill:rgb(240,240,0);stroke:none"/>
<rect width="16" height="66" x="183" y="140" rx="0" ry="0" style="fill:none;stroke-width:1;stroke:rgb(0,0,0)"/>
<line x1="191" y1="118" x2="191" y2="140" stroke="rgb(0,0,0)" stroke-width="1"/>
<line x1="183" y1="118" x2="199" y2="118" stroke="rgb(0,0,0)" stroke-width="1"/>
<line x1="191" y1="284" x2="191" y2="206" stroke="rgb(0,0,0)" stroke-width="1"/>
<line x1="183" y1="284" x2="199" y2="284" stroke="rgb(0,0,0)" stroke-width="1"/>
<line x1="183" y1="173" x2="199" y2="173" stroke="rgb(200,0,0)" stroke-width="1"/>
<rect width="16" height="66" x="203" y="140" style="fill:rgb(240,240,0);stroke:none"/>
<rect width="16" height="66" x="203" y="140" rx="0" ry="0" style="fill:none;stroke-width:1;stroke:rgb(0,0,0)"/>
<line x1="211" y1="118" x2="211" y2="140" stroke="rgb(0,0,0)" stroke-width="1"/>
<line x1="203" y1="118" x2="219" y2="118" stroke="rgb(0,0,0)" stroke-width="1"/>
<line x1="211" y1="284" x2="211" y2="206" stroke="rgb(0,0,0)" stroke-width="1"/>
<line x1="203" y1="284" x2="219" y2="284" stroke="rgb(0,0,0)" stroke-width="1"/>
<line x1="203" y1="173" x2="219" y2="173" stroke="rgb(200,0,0)" stroke-width="1"/>
<rect width="16" height="66" x="223" y="140" style="fill:rgb(240,240,0);stroke:none"/>
<rect width="16" height="66" x="223" y="140" rx="0" ry="0" style="fill:none;stroke-width:1;stroke:rgb(0,0,0)"/>
<line x1="231" y1="118" x2="231" y2="140" stroke="rgb(0,0,0)" stroke-width="1"/>
<line x1="223" y1="118" x2="239" y2="118" stroke="rgb(0,0,0)" stroke-width="1"/>
<line x1="231" y1="284" x2="231" y2="206" stroke="rgb(0,0,0)" stroke-width="1"/>
<line x1="223" y1="284" x2="239" y2="284" stroke="rgb(0,0,0)" stroke-width="1"/>
<line x1="223" y1="173" x2="239" y2="173" stroke="rgb(200,0,0)" stroke-width="1"/>
<rect width="16" height="66" x="243" y="140" style="fill:rgb(240,240,0);stroke:none"/>
<rect width="16" height="66" x="243" y="140" rx="0" ry="0" style="fill:none;stroke-width:1;stroke:rgb(0,0,0)"/>
<line x1="251" y1="118" x2="251" y2="140" stroke="rgb(0,0,0)" stroke-width="1"/>
<line x1="243" y1="118" x2="259" y2="118" stroke="rgb(0,0,0)" stroke-width="1"/>
<line x1="251" y1="295" x2="251" y2="206" stroke="rgb(0,0,0)" stroke-width="1"/>
<line x1="243" y1="295" x2="259" y2="295" stroke="rgb(0,0,0)" stroke-width="1"/>
<line x1="243" y1="173" x2="259" y2="173" stroke="rgb(200,0,0)" stroke-width="1"/>
<rect width="16" height="77" x="263" y="129" style="fill:rgb(240,240,0);stroke:none"/>
<rect width="16" height="77" x="263" y="129" rx="0" ry="0" style="fill:none;stroke-width:1;stroke:rgb(0,0,0)"/>
<line x1="271" y1="118" x2="271" y2="129" stroke="rgb(0,0,0)" stroke-width="1"/>
<line x1="263" y1="118" x2="279" y2="118" stroke="rgb(0,0,0)" stroke-width="1"/>
<line x1="271" y1="284" x2="271" y2="206" stroke="rgb(0,0,0)" stroke-width="1"/>
<line x1="263" y1="284" x2="279" y2="284" stroke="rgb(0,0,0)" stroke-width="1"/>
<line x1="263" y1="162" x2="279" y2="162" stroke="rgb(200,0,0)" stroke-width="1"/>
<rect width="16" height="77" x="283" y="129" style="fill:rgb(240,240,0);stroke:none"/>
<rect width="16" height="77" x="283" y="129" rx="0" ry="0" style="fill:none;stroke-width:1;stroke:rgb(0,0,0)"/>
<line x1="291" y1="118" x2="291" y2="129" stroke="rgb(0,0,0)" stroke-width="1"/>
<line x1="283" y1="118" x2="299" y2="118" stroke="rgb(0,0,0)" stroke-width="1"/>
<line x1="291" y1="284" x2="291" y2="206" stroke="rgb(0,0,0)" stroke-width="1"/>
<line x1="283" y1="284" x2="299" y2="284" stroke="rgb(0,0,0)" stroke-width="1"/>
<line x1="283" y1="173" x2="299" y2="173" stroke="rgb(200,0,0)" stroke-width="1"/>
<rect width="16" height="77" x="303" y="129" style="fill:rgb(240,240,0);stroke:none"/>
<rect width="16" height="77" x="303" y="129" rx="0" ry="0" style="fill:none;stroke-width:1;stroke:rgb(0,0,0)"/>
<line x1="311" y1="107" x2="311" y2="129" stroke="rgb(0,0,0)" stroke-width="1"/>
<line x1="303" y1="107" x2="319" y2="107" stroke="rgb(0,0,0)" stroke-width="1"/>
<line x1="311" y1="306" x2="311" y2="206" stroke="rgb(0,0,0)" stroke-width="1"/>
<line x1="303" y1="306" x2="319" y2="306" stroke="rgb(0,0,0)" stroke-width="1"/>
<line x1="303" y1="162" x2="319" y2="162" stroke="rgb(200,0,0)" stroke-width="1"/>
<rect width="16" height="77" x="323" y="129" style="fill:rgb(240,240,0);stroke:none"/>
<rect width="16" height="77" x="323" y="129" rx="0" ry="0" style="fill:none;stroke-width:1;stroke:rgb(0,0,0)"/>
<line x1="331" y1="107" x2="331" y2="129" stroke="rgb(0,0,0)" stroke-width="1"/>
<line x1="323" y1="107" x2="339" y2="107" stroke="rgb(0,0,0)" stroke-width="1"/>
<line x1="331" y1="273" x2="331" y2="206" stroke="rgb(0,0,0)" stroke-width="1"/>
<line x1="323" y1="273" x2="339" y2="273" stroke="rgb(0,0,0)" stroke-width="1"/>
<line x1="323" y1="173" x2="339" y2="173" stroke="rgb(200,0,0)" stroke-width="1"/>
<rect width="16" height="77" x="343" y="129" style="fill:rgb(240,240,0);stroke:none"/>
<rect width="16" height="77" x="343" y="129" rx="0" ry="0" style="fill:none;stroke-width:1;stroke:rgb(0,0,0)"/>
<line x1="351" y1="107" x2="351" y2="129" stroke="rgb(0,0,0)" stroke-width="1"/>
<line x1="343" y1="107" x2="359" y2="107" stroke="rgb(0,0,0)" stroke-width="1"/>
<line x1="351" y1="295" x2="351" y2="206" stroke="rgb(0,0,0)" stroke-width="1"/>
<line x1="343" y1="295" x2="359" y2="295" stroke="rgb(0,0,0)" stroke-width="1"/>
<line x1="343" y1="173" x2="359" y2="173" stroke="rgb(200,0,0)" stroke-width="1"/>
<rect width="16" height="77" x="363" y="129" style="fill:rgb(240,240,0);stroke:none"/>
<rect width="16" height="77" x="363" y="129" rx="0" ry="0" style="fill:none;stroke-width:1;stroke:rgb(0,0,0)"/>
<line x1="371" y1="107" x2="371" y2="129" stroke="rgb(0,0,0)" stroke-width="1"/>
<line x1="363" y1="107" x2="379" y2="107" stroke="rgb(0,0,0)" stroke-width="1"/>
<line x1="371" y1="295" x2="371" y2="206" stroke="rgb(0,0,0)" stroke-width="1"/>
<line x1="363" y1="295" x2="379" y2="295" stroke="rgb(0,0,0)" stroke-width="1"/>
<line x1="363" y1="173" x2="379" y2="173" stroke="rgb(200,0,0)" stroke-width="1"/>
<rect width="16" height="77" x="383" y="129" style="fill:rgb(240,240,0);stroke:none"/>
<rect width="16" height="77" x="383" y="129" rx="0" ry="0" style="fill:none;stroke-width:1;stroke:rgb(0,0,0)"/>
<line x1="391" y1="107" x2="391" y2="129" stroke="rgb(0,0,0)" stroke-width="1"/>
<line x1="383" y1="107" x2="399" y2="107" stroke="rgb(0,0,0)" stroke-width="1"/>
<line x1="391" y1="328" x2="391" y2="206" stroke="rgb(0,0,0)" stroke-width="1"/>
<line x1="383" y1="328" x2="399" y2="328" stroke="rgb(0,0,0)" stroke-width="1"/>
<line x1="383" y1="162" x2="399" y2="162" stroke="rgb(200,0,0)" stroke-width="1"/>
<rect width="16" height="77" x="403" y="129" style="fill:rgb(240,240,0);stroke:none"/>
<rect width="16" height="77" x="403" y="129" rx="0" ry="0" style="fill:none;stroke-width:1;stroke:rgb(0,0,0)"/>
<line x1="411" y1="107" x2="411" y2="129" stroke="rgb(0,0,0)" stroke-width="1"/>
<line x1="403" y1="107" x2="419" y2="107" stroke="rgb(0,0,0)" stroke-width="1"/>
<line x1="411" y1="328" x2="411" y2="206" stroke="rgb(0,0,0)" stroke-width="1"/>
<line x1="403" y1="328" x2="419" y2="328" stroke="rgb(0,0,0)" stroke-width="1"/>
<line x1="403" y1="173" x2="419" y2="173" stroke="rgb(200,0,0)" stroke-width="1"/>
<rect width="16" height="77" x="423" y="129" style="fill:rgb(240,240,0);stroke:none"/>
<rect width="16" height="77" x="423" y="129" rx="0" ry="0" style="fill:none;stroke-width:1;stroke:rgb(0,0,0)"/>
<line x1="431" y1="107" x2="431" y2="129" stroke="rgb(0,0,0)" stroke-width="1"/>
<line x1="423" y1="107" x2="439" y2="107" stroke="rgb(0,0,0)" stroke-width="1"/>
<line x1="431" y1="328" x2="431" y2="206" stroke="rgb(0,0,0)" stroke-width="1"/>
<line x1="423" y1="328" x2="439" y2="328" stroke="rgb(0,0,0)" stroke-width="1"/>
<line x1="423" y1="162" x2="439" y2="162" stroke="rgb(200,0,0)" stroke-width="1"/>
<rect width="16" height="77" x="443" y="129" style="fill:rgb(240,240,0);stroke:none"/>
<rect width="16" height="77" x="443" y="129" rx="0" ry="0" style="fill:none;stroke-width:1;stroke:rgb(0,0,0)"/>
<line x1="451" y1="107" x2="451" y2="129" stroke="rgb(0,0,0)" stroke-width="1"/>
<line x1="443" y1="107" x2="459" y2="107" stroke="rgb(0,0,0)" stroke-width="1"/>
<line x1="451" y1="395" x2="451" y2="206" stroke="rgb(0,0,0)" stroke-width="1"/>
<line x1="443" y1="395" x2="459" y2="395" stroke="rgb(0,0,0)" stroke-width="1"/>
<line x1="443" y1="173" x2="459" y2="173" stroke="rgb(200,0,0)" stroke-width="1"/>
<rect width="16" height="77" x="463" y="129" style="fill:rgb(240,240,0);stroke:none"/>
<rect width="16" height="77" x="463" y="129" rx="0" ry="0" style="fill:none;stroke-width:1;stroke:rgb(0,0,0)"/>
<line x1="471" y1="107" x2="471" y2="129" stroke="rgb(0,0,0)" stroke-width="1"/>
<line x1="463" y1="107" x2="479" y2="107" stroke="rgb(0,0,0)" stroke-width="1"/>
<line x1="471" y1="350" x2="471" y2="206" stroke="rgb(0,0,0)" stroke-width="1"/>
<line x1="463" y1="350" x2="479" y2="350" stroke="rgb(0,0,0)" stroke-width="1"/>
<line x1="463" y1="173" x2="479" y2="173" stroke="rgb(200,0,0)" stroke-width="1"/>
<rect width="16" height="77" x="483" y="129" style="fill:rgb(240,240,0);stroke:none"/>
<rect width="16" height="77" x="483" y="129" rx="0" ry="0" style="fill:none;stroke-width:1;stroke:rgb(0,0,0)"/>
<line x1="491" y1="107" x2="491" y2="129" stroke="rgb(0,0,0)" stroke-width="1"/>
<line x1="483" y1="107" x2="499" y2="107" stroke="rgb(0,0,0)" stroke-width="1"/>
<line x1="491" y1="395" x2="491" y2="206" stroke="rgb(0,0,0)" stroke-width="1"/>
<line x1="483" y1="395" x2="499" y2="395" stroke="rgb(0,0,0)" stroke-width="1"/>
<line x1="483" y1="173" x2="499" y2="173" stroke="rgb(200,0,0)" stroke-width="1"/>
<rect width="16" height="77" x="503" y="129" style="fill:rgb(240,240,0);stroke:none"/>
<rect width="16" height="77" x="503" y="129" rx="0" ry="0" style="fill:none;stroke-width:1;stroke:rgb(0,0,0)"/>
<line x1="511" y1="107" x2="511" y2="129" stroke="rgb(0,0,0)" stroke-width="1"/>
<line x1="503" y1="107" x2="519" y2="107" stroke="rgb(0,0,0)" stroke-width="1"/>
<line x1="511" y1="395" x2="511" y2="206" stroke="rgb(0,0,0)" stroke-width="1"/>
<line x1="503" y1="395" x2="519" y2="395" stroke="rgb(0,0,0)" stroke-width="1"/>
<line x1="503" y1="173" x2="519" y2="173" stroke="rgb(200,0,0)" stroke-width="1"/>
<rect width="16" height="77" x="523" y="129" style="fill:rgb(240,240,0);stroke:none"/>
<rect width="16" height="77" x="523" y="129" rx="0" ry="0" style="fill:none;stroke-width:1;stroke:rgb(0,0,0)"/>
<line x1="531" y1="107" x2="531" y2="129" stroke="rgb(0,0,0)" stroke-width="1"/>
<line x1="523" y1="107" x2="539" y2="107" stroke="rgb(0,0,0)" stroke-width="1"/>
<line x1="531" y1="406" x2="531" y2="206" stroke="rgb(0,0,0)" stroke-width="1"/>
<line x1="523" y1="406" x2="539" y2="406" stroke="rgb(0,0,0)" stroke-width="1"/>
<line x1="523" y1="173" x2="539" y2="173" stroke="rgb(200,0,0)" stroke-width="1"/>
<rect width="16" height="77" x="543" y="129" style="fill:rgb(240,240,0);stroke:none"/>
<rect width="16" height="77" x="543" y="129" rx="0" ry="0" style="fill:none;stroke-width:1;stroke:rgb(0,0,0)"/>
<line x1="551" y1="107" x2="551" y2="129" stroke="rgb(0,0,0)" stroke-width="1"/>
<line x1="543" y1="107" x2="559" y2="107" stroke="rgb(0,0,0)" stroke-width="1"/>
<line x1="551" y1="461" x2="551" y2="206" stroke="rgb(0,0,0)" stroke-width="1"/>
<line x1="543" y1="461" x2="559" y2="461" stroke="rgb(0,0,0)" stroke-width="1"/>
<line x1="543" y1="173" x2="559" y2="173" stroke="rgb(200,0,0)" stroke-width="1"/>
<rect width="16" height="77" x="563" y="129" style="fill:rgb(240,240,0);stroke:none"/>
<rect width="16" height="77" x="563" y="129" rx="0" ry="0" style="fill:none;stroke-width:1;stroke:rgb(0,0,0)"/>
<line x1="571" y1="107" x2="571" y2="129" stroke="rgb(0,0,0)" stroke-width="1"/>
<line x1="563" y1="107" x2="579" y2="107" stroke="rgb(0,0,0)" stroke-width="1"/>
<line x1="571" y1="417" x2="571" y2="206" stroke="rgb(0,0,0)" stroke-width="1"/>
<line x1="563" y1="417" x2="579" y2="417" stroke="rgb(0,0,0)" stroke-width="1"/>
<line x1="563" y1="173" x2="579" y2="173" stroke="rgb(200,0,0)" stroke-width="1"/>
<rect width="16" height="89" x="583" y="129" style="fill:rgb(240,240,0);stroke:none"/>
<rect width="16" height="89" x="583" y="129" rx="0" ry="0" style="fill:none;stroke-width:1;stroke:rgb(0,0,0)"/>
<line x1="591" y1="107" x2="591" y2="129" stroke="rgb(0,0,0)" stroke-width="1"/>
<line x1="583" y1="107" x2="599" y2="107" stroke="rgb(0,0,0)" stroke-width="1"/>
<line x1="591" y1="461" x2="591" y2="218" stroke="rgb(0,0,0)" stroke-width="1"/>
<line x1="583" y1="461" x2="599" y2="461" stroke="rgb(0,0,0)" stroke-width="1"/>
<line x1="583" y1="173" x2="599" y2="173" stroke="rgb(200,0,0)" stroke-width="1"/>
<rect width="16" height="77" x="603" y="129" style="fill:rgb(240,240,0);stroke:none"/>
<rect width="16" height="77" x="603" y="129" rx="0" ry="0" style="fill:none;stroke-width:1;stroke:rgb(0,0,0)"/>
<line x1="611" y1="107" x2="611" y2="129" stroke="rgb(0,0,0)" stroke-width="1"/>
<line x1="603" y1="107" x2="619" y2="107" stroke="rgb(0,0,0)" stroke-width="1"/>
<line x1="611" y1="516" x2="611" y2="206" stroke="rgb(0,0,0)" stroke-width="1"/>
<line x1="603" y1="516" x2="619" y2="516" stroke="rgb(0,0,0)" stroke-width="1"/>
<line x1="603" y1="173" x2="619" y2="173" stroke="rgb(200,0,0)" stroke-width="1"/>
<rect width="16" height="89" x="623" y="129" style="fill:rgb(240,240,0);stroke:none"/>
<rect width="16" height="89" x="623" y="129" rx="0" ry="0" style="fill:none;stroke-width:1;stroke:rgb(0,0,0)"/>
<line x1="631" y1="107" x2="631" y2="129" stroke="rgb(0,0,0)" stroke-width="1"/>
<line x1="623" y1="107" x2="639" y2="107" stroke="rgb(0,0,0)" stroke-width="1"/>
<line x1="631" y1="538" x2="631" y2="218" stroke="rgb(0,0,0)" stroke-width="1"/>
<line x1="623" y1="538" x2="639" y2="538" stroke="rgb(0,0,0)" stroke-width="1"/>
<line x1="623" y1="173" x2="639" y2="173" stroke="rgb(200,0,0)" stroke-width="1"/>
<rect width="16" height="77" x="643" y="129" style="fill:rgb(240,240,0);stroke:none"/>
<rect width="16" height="77" x="643" y="129" rx="0" ry="0" style="fill:none;stroke-width:1;stroke:rgb(0,0,0)"/>
<line x1="651" y1="107" x2="651" y2="129" stroke="rgb(0,0,0)" stroke-width="1"/>
<line x1="643" y1="107" x2="659" y2="107" stroke="rgb(0,0,0)" stroke-width="1"/>
<line x1="651" y1="538" x2="651" y2="206" stroke="rgb(0,0,0)" stroke-width="1"/>
<line x1="643" y1="538" x2="659" y2="538" stroke="rgb(0,0,0)" stroke-width="1"/>
<line x1="643" y1="173" x2="659" y2="173" stroke="rgb(200,0,0)" stroke-width="1"/>
<rect width="16" height="89" x="663" y="129" style="fill:rgb(240,240,0);stroke:none"/>
<rect width="16" height="89" x="663" y="129" rx="0" ry="0" style="fill:none;stroke-width:1;stroke:rgb(0,0,0)"/>
<line x1="671" y1="107" x2="671" y2="129" stroke="rgb(0,0,0)" stroke-width="1"/>
<line x1="663" y1="107" x2="679" y2="107" stroke="rgb(0,0,0)" stroke-width="1"/>
<line x1="671" y1="538" x2="671" y2="218" stroke="rgb(0,0,0)" stroke-width="1"/>
<line x1="663" y1="538" x2="679" y2="538" stroke="rgb(0,0,0)" stroke-width="1"/>
<line x1="663" y1="173" x2="679" y2="173" stroke="rgb(200,0,0)" stroke-width="1"/>
<rect width="16" height="78" x="683" y="140" style="fill:rgb(240,240,0);stroke:none"/>
<rect width="16" height="78" x="683" y="140" rx="0" ry="0" style="fill:none;stroke-width:1;stroke:rgb(0,0,0)"/>
<line x1="691" y1="107" x2="691" y2="140" stroke="rgb(0,0,0)" stroke-width="1"/>
<line x1="683" y1="107" x2="699" y2="107" stroke="rgb(0,0,0)" stroke-width="1"/>
<line x1="691" y1="538" x2="691" y2="218" stroke="rgb(0,0,0)" stroke-width="1"/>
<line x1="683" y1="538" x2="699" y2="538" stroke="rgb(0,0,0)" stroke-width="1"/>
<line x1="683" y1="173" x2="699" y2="173" stroke="rgb(200,0,0)" stroke-width="1"/>
<rect width="16" height="100" x="703" y="140" style="fill:rgb(240,240,0);stroke:none"/>
<rect width="16" height="100" x="703" y="140" rx="0" ry="0" style="fill:none;stroke-width:1;stroke:rgb(0,0,0)"/>
<line x1="711" y1="118" x2="711" y2="140" stroke="rgb(0,0,0)" stroke-width="1"/>
<line x1="703" y1="118" x2="719" y2="118" stroke="rgb(0,0,0)" stroke-width="1"/>
<line x1="711" y1="306" x2="711" y2="240" stroke="rgb(0,0,0)" stroke-width="1"/>
<line x1="703" y1="306" x2="719" y2="306" stroke="rgb(0,0,0)" stroke-width="1"/>
<line x1="703" y1="184" x2="719" y2="184" stroke="rgb(200,0,0)" stroke-width="1"/>
<rect width="16" height="55" x="723" y="151" style="fill:rgb(240,240,0);stroke:none"/>
<rect width="16" height="55" x="723" y="151" rx="0" ry="0" style="fill:none;stroke-width:1;stroke:rgb(0,0,0)"/>
<line x1="731" y1="118" x2="731" y2="151" stroke="rgb(0,0,0)" stroke-width="1"/>
<line x1="723" y1="118" x2="739" y2="118" stroke="rgb(0,0,0)" stroke-width="1"/>
<line x1="731" y1="317" x2="731" y2="206" stroke="rgb(0,0,0)" stroke-width="1"/>
<line x1="723" y1="317" x2="739" y2="317" stroke="rgb(0,0,0)" stroke-width="1"/>
<line x1="723" y1="173" x2="739" y2="173" stroke="rgb(200,0,0)" stroke-width="1"/>
<rect width="16" height="66" x="743" y="140" style="fill:rgb(240,240,0);stroke:none"/>
<rect width="16" height="66" x="743" y="140" rx="0" ry="0" style="fill:none;stroke-width:1;stroke:rgb(0,0,0)"/>
<line x1="751" y1="118" x2="751" y2="140" stroke="rgb(0,0,0)" stroke-width="1"/>
<line x1="743" y1="118" x2="759" y2="118" stroke="rgb(0,0,0)" stroke-width="1"/>
<line x1="751" y1="317" x2="751" y2="206" stroke="rgb(0,0,0)" stroke-width="1"/>
<line x1="743" y1="317" x2="759" y2="317" stroke="rgb(0,0,0)" stroke-width="1"/>
<line x1="743" y1="184" x2="759" y2="184" stroke="rgb(200,0,0)" stroke-width="1"/>
<rect width="16" height="111" x="763" y="129" style="fill:rgb(240,240,0);stroke:none"/>
<rect width="16" height="111" x="763" y="129" rx="0" ry="0" style="fill:none;stroke-width:1;stroke:rgb(0,0,0)"/>
<line x1="771" y1="107" x2="771" y2="129" stroke="rgb(0,0,0)" stroke-width="1"/>
<line x1="763" y1="107" x2="779" y2="107" stroke="rgb(0,0,0)" stroke-width="1"/>
<line x1="771" y1="328" x2="771" y2="240" stroke="rgb(0,0,0)" stroke-width="1"/>
<line x1="763" y1="328" x2="779" y2="328" stroke="rgb(0,0,0)" stroke-width="1"/>
<line x1="763" y1="173" x2="779" y2="173" stroke="rgb(200,0,0)" stroke-width="1"/>
<line x1="31" y1="269" x2="51" y2="224" stroke="rgb(0,0,200)" stroke-width="1"/>
<line x1="51" y1="224" x2="71" y2="219" stroke="rgb(0,0,200)" stroke-width="1"/>
<line x1="71" y1="219" x2="91" y2="205" stroke="rgb(0,0,200)" stroke-width="1"/>
<line x1="91" y1="205" x2="111" y2="204" stroke="rgb(0,0,200)" stroke-width="1"/>
<line x1="111" y1="204" x2="131" y2="200" stroke="rgb(0,0,200)" stroke-width="1"/>
<line x1="131" y1="200" x2="151" y2="199" stroke="rgb(0,0,200)" stroke-width="1"/>
<line x1="151" y1="199" x2="171" y2="197" stroke="rgb(0,0,200)" stroke-width="1"/>
<line x1="171" y1="197" x2="191" y2="197" stroke="rgb(0,0,200)" stroke-width="1"/>
<line x1="191" y1="197" x2="211" y2="197" stroke="rgb(0,0,200)" stroke-width="1"/>
<line x1="211" y1="197" x2="231" y2="197" stroke="rgb(0,0,200)" stroke-width="1"/>
<line x1="231" y1="197" x2="251" y2="198" stroke="rgb(0,0,200)" stroke-width="1"/>
<line x1="251" y1="198" x2="271" y2="195" stroke="rgb(0,0,200)" stroke-width="1"/>
<line x1="271" y1="195" x2="291" y2="195" stroke="rgb(0,0,200)" stroke-width="1"/>
<line x1="291" y1="195" x2="311" y2="194" stroke="rgb(0,0,200)" stroke-width="1"/>
<line x1="311" y1="194" x2="331" y2="194" stroke="rgb(0,0,200)" stroke-width="1"/>
<line x1="331" y1="194" x2="351" y2="196" stroke="rgb(0,0,200)" stroke-width="1"/>
<line x1="351" y1="196" x2="371" y2="197" stroke="rgb(0,0,200)" stroke-width="1"/>
<line x1="371" y1="197" x2="391" y2="198" stroke="rgb(0,0,200)" stroke-width="1"/>
<line x1="391" y1="198" x2="411" y2="197" stroke="rgb(0,0,200)" stroke-width="1"/>
<line x1="411" y1="197" x2="431" y2="197" stroke="rgb(0,0,200)" stroke-width="1"/>
<line x1="431" y1="197" x2="451" y2="203" stroke="rgb(0,0,200)" stroke-width="1"/>
<line x1="451" y1="203" x2="471" y2="202" stroke="rgb(0,0,200)" stroke-width="1"/>
<line x1="471" y1="202" x2="491" y2="203" stroke="rgb(0,0,200)" stroke-width="1"/>
<line x1="491" y1="203" x2="511" y2="204" stroke="rgb(0,0,200)" stroke-width="1"/>
<line x1="511" y1="204" x2="531" y2="202" stroke="rgb(0,0,200)" stroke-width="1"/>
<line x1="531" y1="202" x2="551" y2="204" stroke="rgb(0,0,200)" stroke-width="1"/>
<line x1="551" y1="204" x2="571" y2="206" stroke="rgb(0,0,200)" stroke-width="1"/>
<line x1="571" y1="206" x2="591" y2="206" stroke="rgb(0,0,200)" stroke-width="1"/>
<line x1="591" y1="206" x2="611" y2="206" stroke="rgb(0,0,200)" stroke-width="1"/>
<line x1="611" y1="206" x2="631" y2="211" stroke="rgb(0,0,200)" stroke-width="1"/>
<line x1="631" y1="211" x2="651" y2="210" stroke="rgb(0,0,200)" stroke-width="1"/>
<line x1="651" y1="210" x2="671" y2="211" stroke="rgb(0,0,200)" stroke-width="1"/>
<line x1="671" y1="211" x2="691" y2="216" stroke="rgb(0,0,200)" stroke-width="1"/>
<line x1="691" y1="216" x2="711" y2="207" stroke="rgb(0,0,200)" stroke-width="1"/>
<line x1="711" y1="207" x2="731" y2="200" stroke="rgb(0,0,200)" stroke-width="1"/>
<line x1="731" y1="200" x2="751" y2="205" stroke="rgb(0,0,200)" stroke-width="1"/>
<line x1="751" y1="205" x2="771" y2="204" stroke="rgb(0,0,200)" stroke-width="1"/>
</svg>
