<?xml version="1.0" standalone="no"?>
<!DOCTYPE svg PUBLIC "-//W3C//DTD SVG 1.1//EN" "http://www.w3.org/Graphics/SVG/1.1/DTD/svg11.dtd">
<svg width="800" height="600" version="1.1" xmlns="http://www.w3.org/2000/svg">
<rect width="800" height="600" x="0" y="0" style="fill:rgb(238,238,238);stroke:none"/>
<rect width="800" height="600" x="0" y="0" style="fill:rgb(255,255,255);stroke:none"/>
<text x="2" y="566" fill="rgb(0,0,0)" font-family="Arial" font-size="12">0</text>
<text x="2" y="543" fill="rgb(0,0,0)" font-family="Arial" font-size="12">2</text>
<text x="2" y="520" fill="rgb(0,0,0)" font-family="Arial" font-size="12">4</text>
<text x="2" y="497" fill="rgb(0,0,0)" font-family="Arial" font-size="12">6</text>
<text x="2" y="474" fill="rgb(0,0,0)" font-family="Arial" font-size="12">8</text>
<text x="2" y="451" fill="rgb(0,0,0)" font-family="Arial" font-size="12">10</text>
<text x="2" y="428" fill="rgb(0,0,0)" font-family="Arial" font-size="12">12</text>
<text x="2" y="405" fill="rgb(0,0,0)" font-family="Arial" font-size="12">14</text>
<text x="2" y="382" fill="rgb(0,0,0)" font-family="Arial" font-size="12">16</text>
<text x="2" y="358" fill="rgb(0,0,0)" font-family="Arial" font-size="12">18</text>
<text x="2" y="335" fill="rgb(0,0,0)" font-family="Arial" font-size="12">20</text>
<text x="2" y="312" fill="rgb(0,0,0)" font-family="Arial" font-size="12">22</text>
<text x="2" y="289" fill="rgb(0,0,0)" font-family="Arial" font-size="12">24</text>
<text x="2" y="266" fill="rgb(0,0,0)" font-family="Arial" font-size="12">26</text>
<text x="2" y="243" fill="rgb(0,0,0)" font-family="Arial" font-size="12">28</text>
<text x="2" y="220" fill="rgb(0,0,0)" font-family="Arial" font-size="12">30</text>
<text x="2" y="197" fill="rgb(0,0,0)" font-family="Arial" font-size="12">32</text>
<text x="2" y="174" fill="rgb(0,0,0)" font-family="Arial" font-size="12">34</text>
<text x="2" y="150" fill="rgb(0,0,0)" font-family="Arial" font-size="12">36</text>
<text x="2" y="127" fill="rgb(0,0,0)" font-family="Arial" font-size="12">38</text>
<text x="2" y="104" fill="rgb(0,0,0)" font-family="Arial" font-size="12">40</text>
<text x="2" y="81" fill="rgb(0,0,0)" font-family="Arial" font-size="12">42</text>
<text x="2" y="58" fill="rgb(0,0,0)" font-family="Arial" font-size="12">44</text>
<text x="206" y="30" fill="rgb(0,0,0)" font-family="Arial" font-size="12">Quality scores across all bases (Sanger / Illumina 1.9 encoding)</text>
<rect width="20" height="231" x="21" y="329" style="fill:rgb(230,175,175);stroke:none"/>
<rect width="20" height="92" x="21" y="237" style="fill:rgb(230,215,175);stroke:none"/>
<rect width="20" height="197" x="21" y="40" style="fill:rgb(175,230,175);stroke:none"/>
<text x="27" y="575" fill="rgb(0,0,0)" font-family="Arial" font-size="12">1</text>
<rect width="20" height="231" x="41" y="329" style="fill:rgb(230,195,195);stroke:none"/>
<rect width="20" height="92" x="41" y="237" style="fill:rgb(230,220,195);stroke:none"/>
<rect width="20" height="197" x="41" y="40" style="fill:rgb(195,230,195);stroke:none"/>
<text x="47" y="575" fill="rgb(0,0,0)" font-family="Arial" font-size="12">2</text>
<rect width="20" height="231" x="61" y="329" style="fill:rgb(230,175,175);stroke:none"/>
<rect width="20" height="92" x="61" y="237" style="fill:rgb(230,215,175);stroke:none"/>
<rect width="20" height="197" x="61" y="40" style="fill:rgb(175,230,175);stroke:none"/>
<text x="67" y="575" fill="rgb(0,0,0)" font-family="Arial" font-size="12">3</text>
<rect width="20" height="231" x="81" y="329" style="fill:rgb(230,195,195);stroke:none"/>
<rect width="20" height="92" x="81" y="237" style="fill:rgb(230,220,195);stroke:none"/>
<rect width="20" height="197" x="81" y="40" style="fill:rgb(195,230,195);stroke:none"/>
<text x="87" y="575" fill="rgb(0,0,0)" font-family="Arial" font-size="12">4</text>
<rect width="20" height="231" x="101" y="329" style="fill:rgb(230,175,175);stroke:none"/>
<rect width="20" height="92" x="101" y="237" style="fill:rgb(230,215,175);stroke:none"/>
<rect width="20" height="197" x="101" y="40" style="fill:rgb(175,230,175);stroke:none"/>
<text x="107" y="575" fill="rgb(0,0,0)" font-family="Arial" font-size="12">5</text>
<rect width="20" height="231" x="121" y="329" style="fill:rgb(230,195,195);stroke:none"/>
<rect width="20" height="92" x="121" y="237" style="fill:rgb(230,220,195);stroke:none"/>
<rect width="20" height="197" x="121" y="40" style="fill:rgb(195,230,195);stroke:none"/>
<text x="127" y="575" fill="rgb(0,0,0)" font-family="Arial" font-size="12">6</text>
<rect width="20" height="231" x="141" y="329" style="fill:rgb(230,175,175);stroke:none"/>
<rect width="20" height="92" x="141" y="237" style="fill:rgb(230,215,175);stroke:none"/>
<rect width="20" height="197" x="141" y="40" style="fill:rgb(175,230,175);stroke:none"/>
<text x="147" y="575" fill="rgb(0,0,0)" font-family="Arial" font-size="12">7</text>
<rect width="20" height="231" x="161" y="329" style="fill:rgb(230,195,195);stroke:none"/>
<rect width="20" height="92" x="161" y="237" style="fill:rgb(230,220,195);stroke:none"/>
<rect width="20" height="197" x="161" y="40" style="fill:rgb(195,230,195);stroke:none"/>
<text x="167" y="575" fill="rgb(0,0,0)" font-family="Arial" font-size="12">8</text>
<rect width="20" height="231" x="181" y="329" style="fill:rgb(230,175,175);stroke:none"/>
<rect width="20" height="92" x="181" y="237" style="fill:rgb(230,215,175);stroke:none"/>
<rect width="20" height="197" x="181" y="40" style="fill:rgb(175,230,175);stroke:none"/>
<text x="187" y="575" fill="rgb(0,0,0)" font-family="Arial" font-size="12">9</text>
<rect width="20" height="231" x="201" y="329" style="fill:rgb(230,195,195);stroke:none"/>
<rect width="20" height="92" x="201" y="237" style="fill:rgb(230,220,195);stroke:none"/>
<rect width="20" height="197" x="201" y="40" style="fill:rgb(195,230,195);stroke:none"/>
<text x="203" y="575" fill="rgb(0,0,0)" font-family="Arial" font-size="12">10</text>
<rect width="20" height="231" x="221" y="329" style="fill:rgb(230,175,175);stroke:none"/>
<rect width="20" height="92" x="221" y="237" style="fill:rgb(230,215,175);stroke:none"/>
<rect width="20" height="197" x="221" y="40" style="fill:rgb(175,230,175);stroke:none"/>
<rect width="20" height="231" x="241" y="329" style="fill:rgb(230,195,195);stroke:none"/>
<rect width="20" height="92" x="241" y="237" style="fill:rgb(230,220,195);stroke:none"/>
<rect width="20" height="197" x="241" y="40" style="fill:rgb(195,230,195);stroke:none"/>
<text x="243" y="575" fill="rgb(0,0,0)" font-family="Arial" font-size="12">12</text>
<rect width="20" height="231" x="261" y="329" style="fill:rgb(230,175,175);stroke:none"/>
<rect width="20" height="92" x="261" y="237" style="fill:rgb(230,215,175);stroke:none"/>
<rect width="20" height="197" x="261" y="40" style="fill:rgb(175,230,175);stroke:none"/>
<rect width="20" height="231" x="281" y="329" style="fill:rgb(230,195,195);stroke:none"/>
<rect width="20" height="92" x="281" y="237" style="fill:rgb(230,220,195);stroke:none"/>
<rect width="20" height="197" x="281" y="40" style="fill:rgb(195,230,195);stroke:none"/>
<text x="283" y="575" fill="rgb(0,0,0)" font-family="Arial" font-size="12">14</text>
<rect width="20" height="231" x="301" y="329" style="fill:rgb(230,175,175);stroke:none"/>
<rect width="20" height="92" x="301" y="237" style="fill:rgb(230,215,175);stroke:none"/>
<rect width="20" height="197" x="301" y="40" style="fill:rgb(175,230,175);stroke:none"/>
<rect width="20" height="231" x="321" y="329" style="fill:rgb(230,195,195);stroke:none"/>
<rect width="20" height="92" x="321" y="237" style="fill:rgb(230,220,195);stroke:none"/>
<rect width="20" height="197" x="321" y="40" style="fill:rgb(195,230,195);stroke:none"/>
<text x="323" y="575" fill="rgb(0,0,0)" font-family="Arial" font-size="12">16</text>
<rect width="20" height="231" x="341" y="329" style="fill:rgb(230,175,175);stroke:none"/>
<rect width="20" height="92" x="341" y="237" style="fill:rgb(230,215,175);stroke:none"/>
<rect width="20" height="197" x="341" y="40" style="fill:rgb(175,230,175);stroke:none"/>
<rect width="20" height="231" x="361" y="329" style="fill:rgb(230,195,195);stroke:none"/>
<rect width="20" height="92" x="361" y="237" style="fill:rgb(230,220,195);stroke:none"/>
<rect width="20" height="197" x="361" y="40" style="fill:rgb(195,230,195);stroke:none"/>
<text x="363" y="575" fill="rgb(0,0,0)" font-family="Arial" font-size="12">18</text>
<rect width="20" height="231" x="381" y="329" style="fill:rgb(230,175,175);stroke:none"/>
<rect width="20" height="92" x="381" y="237" style="fill:rgb(230,215,175);stroke:none"/>
<rect width="20" height="197" x="381" y="40" style="fill:rgb(175,230,175);stroke:none"/>
<rect width="20" height="231" x="401" y="329" style="fill:rgb(230,195,195);stroke:none"/>
<rect width="20" height="92" x="401" y="237" style="fill:rgb(230,220,195);stroke:none"/>
<rect width="20" height="197" x="401" y="40" style="fill:rgb(195,230,195);stroke:none"/>
<text x="403" y="575" fill="rgb(0,0,0)" font-family="Arial" font-size="12">20</text>
<rect width="20" height="231" x="421" y="329" style="fill:rgb(230,175,175);stroke:none"/>
<rect width="20" height="92" x="421" y="237" style="fill:rgb(230,215,175);stroke:none"/>
<rect width="20" height="197" x="421" y="40" style="fill:rgb(175,230,175);stroke:none"/>
<rect width="20" height="231" x="441" y="329" style="fill:rgb(230,195,195);stroke:none"/>
<rect width="20" height="92" x="441" y="237" style="fill:rgb(230,220,195);stroke:none"/>
<rect width="20" height="197" x="441" y="40" style="fill:rgb(195,230,195);stroke:none"/>
<text x="443" y="575" fill="rgb(0,0,0)" font-family="Arial" font-size="12">22</text>
<rect width="20" height="231" x="461" y="329" style="fill:rgb(230,175,175);stroke:none"/>
<rect width="20" height="92" x="461" y="237" style="fill:rgb(230,215,175);stroke:none"/>
<rect width="20" height="197" x="461" y="40" style="fill:rgb(175,230,175);stroke:none"/>
<rect width="20" height="231" x="481" y="329" style="fill:rgb(230,195,195);stroke:none"/>
<rect width="20" height="92" x="481" y="237" style="fill:rgb(230,220,195);stroke:none"/>
<rect width="20" height="197" x="481" y="40" style="fill:rgb(195,230,195);stroke:none"/>
<text x="483" y="575" fill="rgb(0,0,0)" font-family="Arial" font-size="12">24</text>
<rect width="20" height="231" x="501" y="329" style="fill:rgb(230,175,175);stroke:none"/>
<rect width="20" height="92" x="501" y="237" style="fill:rgb(230,215,175);stroke:none"/>
<rect width="20" height="197" x="501" y="40" style="fill:rgb(175,230,175);stroke:none"/>
<rect width="20" height="231" x="521" y="329" style="fill:rgb(230,195,195);stroke:none"/>
<rect width="20" height="92" x="521" y="237" style="fill:rgb(230,220,195);stroke:none"/>
<rect width="20" height="197" x="521" y="40" style="fill:rgb(195,230,195);stroke:none"/>
<text x="523" y="575" fill="rgb(0,0,0)" font-family="Arial" font-size="12">26</text>
<rect width="20" height="231" x="541" y="329" style="fill:rgb(230,175,175);stroke:none"/>
<rect width="20" height="92" x="541" y="237" style="fill:rgb(230,215,175);stroke:none"/>
<rect width="20" height="197" x="541" y="40" style="fill:rgb(175,230,175);stroke:none"/>
<rect width="20" height="231" x="561" y="329" style="fill:rgb(230,195,195);stroke:none"/>
<rect width="20" height="92" x="561" y="237" style="fill:rgb(230,220,195);stroke:none"/>
<rect width="20" height="197" x="561" y="40" style="fill:rgb(195,230,195);stroke:none"/>
<text x="563" y="575" fill="rgb(0,0,0)" font-family="Arial" font-size="12">28</text>
<rect width="20" height="231" x="581" y="329" style="fill:rgb(230,175,175);stroke:none"/>
<rect width="20" height="92" x="581" y="237" style="fill:rgb(230,215,175);stroke:none"/>
<rect width="20" height="197" x="581" y="40" style="fill:rgb(175,230,175);stroke:none"/>
<rect width="20" height="231" x="601" y="329" style="fill:rgb(230,195,195);stroke:none"/>
<rect width="20" height="92" x="601" y="237" style="fill:rgb(230,220,195);stroke:none"/>
<rect width="20" height="197" x="601" y="40" style="fill:rgb(195,230,195);stroke:none"/>
<text x="603" y="575" fill="rgb(0,0,0)" font-family="Arial" font-size="12">30</text>
<rect width="20" height="231" x="621" y="329" style="fill:rgb(230,175,175);stroke:none"/>
<rect width="20" height="92" x="621" y="237" style="fill:rgb(230,215,175);stroke:none"/>
<rect width="20" height="197" x="621" y="40" style="fill:rgb(175,230,175);stroke:none"/>
<rect width="20" height="231" x="641" y="329" style="fill:rgb(230,195,195);stroke:none"/>
<rect width="20" height="92" x="641" y="237" style="fill:rgb(230,220,195);stroke:none"/>
<rect width="20" height="197" x="641" y="40" style="fill:rgb(195,230,195);stroke:none"/>
<text x="643" y="575" fill="rgb(0,0,0)" font-family="Arial" font-size="12">32</text>
<rect width="20" height="231" x="661" y="329" style="fill:rgb(230,175,175);stroke:none"/>
<rect width="20" height="92" x="661" y="237" style="fill:rgb(230,215,175);stroke:none"/>
<rect width="20" height="197" x="661" y="40" style="fill:rgb(175,230,175);stroke:none"/>
<rect width="20" height="231" x="681" y="329" style="fill:rgb(230,195,195);stroke:none"/>
<rect width="20" height="92" x="681" y="237" style="fill:rgb(230,220,195);stroke:none"/>
<rect width="20" height="197" x="681" y="40" style="fill:rgb(195,230,195);stroke:none"/>
<text x="683" y="575" fill="rgb(0,0,0)" font-family="Arial" font-size="12">34</text>
<rect width="20" height="231" x="701" y="329" style="fill:rgb(230,175,175);stroke:none"/>
<rect width="20" height="92" x="701" y="237" style="fill:rgb(230,215,175);stroke:none"/>
<rect width="20" height="197" x="701" y="40" style="fill:rgb(175,230,175);stroke:none"/>
<rect width="20" height="231" x="721" y="329" style="fill:rgb(230,195,195);stroke:none"/>
<rect width="20" height="92" x="721" y="237" style="fill:rgb(230,220,195);stroke:none"/>
<rect width="20" height="197" x="721" y="40" style="fill:rgb(195,230,195);stroke:none"/>
<text x="723" y="575" fill="rgb(0,0,0)" font-family="Arial" font-size="12">36</text>
<rect width="20" height="231" x="741" y="329" style="fill:rgb(230,175,175);stroke:none"/>
<rect width="20" height="92" x="741" y="237" style="fill:rgb(230,215,175);stroke:none"/>
<rect width="20" height="197" x="741" y="40" style="fill:rgb(175,230,175);stroke:none"/>
<rect width="20" height="231" x="761" y="329" style="fill:rgb(230,195,195);stroke:none"/>
<rect width="20" height="92" x="761" y="237" style="fill:rgb(230,220,195);stroke:none"/>
<rect width="20" height="197" x="761" y="40" style="fill:rgb(195,230,195);stroke:none"/>
<text x="763" y="575" fill="rgb(0,0,0)" font-family="Arial" font-size="12">38</text>
<line x1="21" y1="560" x2="790" y2="560" stroke="rgb(0,0,0)" stroke-width="1"/>
<line x1="21" y1="560" x2="21" y2="40" stroke="rgb(0,0,0)" stroke-width="1"/>
<text x="336" y="595" fill="rgb(0,0,0)" font-family="Arial" font-size="12">Position in read (bp)</text>
<rect width="16" height="70" x="23" y="202" style="fill:rgb(240,240,0);stroke:none"/>
<rect width="16" height="70" x="23" y="202" rx="0" ry="0" style="fill:none;stroke-width:1;stroke:rgb(0,0,0)"/>
<line x1="31" y1="191" x2="31" y2="202" stroke="rgb(0,0,0)" stroke-width="1"/>
<line x1="23" y1="191" x2="39" y2="191" stroke="rgb(0,0,0)" stroke-width="1"/>
<line x1="31" y1="283" x2="31" y2="272" stroke="rgb(0,0,0)" stroke-width="1"/>
<line x1="23" y1="283" x2="39" y2="283" stroke="rgb(0,0,0)" stroke-width="1"/>
<line x1="23" y1="272" x2="39" y2="272" stroke="rgb(200,0,0)" stroke-width="1"/>
<rect width="16" height="69" x="43" y="156" style="fill:rgb(240,240,0);stroke:none"/>
<rect width="16" height="69" x="43" y="156" rx="0" ry="0" style="fill:none;stroke-width:1;stroke:rgb(0,0,0)"/>
<line x1="51" y1="133" x2="51" y2="156" stroke="rgb(0,0,0)" stroke-width="1"/>
<line x1="43" y1="133" x2="59" y2="133" stroke="rgb(0,0,0)" stroke-width="1"/>
<line x1="51" y1="248" x2="51" y2="225" stroke="rgb(0,0,0)" stroke-width="1"/>
<line x1="43" y1="248" x2="59" y2="248" stroke="rgb(0,0,0)" stroke-width="1"/>
<line x1="43" y1="191" x2="59" y2="191" stroke="rgb(200,0,0)" stroke-width="1"/>
<rect width="16" height="70" x="63" y="144" style="fill:rgb(240,240,0);stroke:none"/>
<rect width="16" height="70" x="63" y="144" rx="0" ry="0" style="fill:none;stroke-width:1;stroke:rgb(0,0,0)"/>
<line x1="71" y1="133" x2="71" y2="144" stroke="rgb(0,0,0)" stroke-width="1"/>
<line x1="63" y1="133" x2="79" y2="133" stroke="rgb(0,0,0)" stroke-width="1"/>
<line x1="71" y1="248" x2="71" y2="214" stroke="rgb(0,0,0)" stroke-width="1"/>
<line x1="63" y1="248" x2="79" y2="248" stroke="rgb(0,0,0)" stroke-width="1"/>
<line x1="63" y1="179" x2="79" y2="179" stroke="rgb(200,0,0)" stroke-width="1"/>
<rect width="16" height="69" x="83" y="133" style="fill:rgb(240,240,0);stroke:none"/>
<rect width="16" height="69" x="83" y="133" rx="0" ry="0" style="fill:none;stroke-width:1;stroke:rgb(0,0,0)"/>
<line x1="91" y1="110" x2="91" y2="133" stroke="rgb(0,0,0)" stroke-width="1"/>
<line x1="83" y1="110" x2="99" y2="110" stroke="rgb(0,0,0)" stroke-width="1"/>
<line x1="91" y1="237" x2="91" y2="202" stroke="rgb(0,0,0)" stroke-width="1"/>
<line x1="83" y1="237" x2="99" y2="237" stroke="rgb(0,0,0)" stroke-width="1"/>
<line x1="83" y1="168" x2="99" y2="168" stroke="rgb(200,0,0)" stroke-width="1"/>
<rect width="16" height="69" x="103" y="133" style="fill:rgb(240,240,0);stroke:none"/>
<rect width="16" height="69" x="103" y="133" rx="0" ry="0" style="fill:none;stroke-width:1;stroke:rgb(0,0,0)"/>
<line x1="111" y1="110" x2="111" y2="133" stroke="rgb(0,0,0)" stroke-width="1"/>
<line x1="103" y1="110" x2="119" y2="110" stroke="rgb(0,0,0)" stroke-width="1"/>
<line x1="111" y1="237" x2="111" y2="202" stroke="rgb(0,0,0)" stroke-width="1"/>
<line x1="103" y1="237" x2="119" y2="237" stroke="rgb(0,0,0)" stroke-width="1"/>
<line x1="103" y1="168" x2="119" y2="168" stroke="rgb(200,0,0)" stroke-width="1"/>
<rect width="16" height="81" x="123" y="121" style="fill:rgb(240,240,0);stroke:none"/>
<rect width="16" height="81" x="123" y="121" rx="0" ry="0" style="fill:none;stroke-width:1;stroke:rgb(0,0,0)"/>
<line x1="131" y1="110" x2="131" y2="121" stroke="rgb(0,0,0)" stroke-width="1"/>
<line x1="123" y1="110" x2="139" y2="110" stroke="rgb(0,0,0)" stroke-width="1"/>
<line x1="131" y1="237" x2="131" y2="202" stroke="rgb(0,0,0)" stroke-width="1"/>
<line x1="123" y1="237" x2="139" y2="237" stroke="rgb(0,0,0)" stroke-width="1"/>
<line x1="123" y1="156" x2="139" y2="156" stroke="rgb(200,0,0)" stroke-width="1"/>
<rect width="16" height="70" x="143" y="121" style="fill:rgb(240,240,0);stroke:none"/>
<rect width="16" height="70" x="143" y="121" rx="0" ry="0" style="fill:none;stroke-width:1;stroke:rgb(0,0,0)"/>
<line x1="151" y1="110" x2="151" y2="121" stroke="rgb(0,0,0)" stroke-width="1"/>
<line x1="143" y1="110" x2="159" y2="110" stroke="rgb(0,0,0)" stroke-width="1"/>
<line x1="151" y1="237" x2="151" y2="191" stroke="rgb(0,0,0)" stroke-width="1"/>
<line x1="143" y1="237" x2="159" y2="237" stroke="rgb(0,0,0)" stroke-width="1"/>
<line x1="143" y1="156" x2="159" y2="156" stroke="rgb(200,0,0)" stroke-width="1"/>
<rect width="16" height="70" x="163" y="121" style="fill:rgb(240,240,0);stroke:none"/>
<rect width="16" height="70" x="163" y="121" rx="0" ry="0" style="fill:none;stroke-width:1;stroke:rgb(0,0,0)"/>
<line x1="171" y1="98" x2="171" y2="121" stroke="rgb(0,0,0)" stroke-width="1"/>
<line x1="163" y1="98" x2="179" y2="98" stroke="rgb(0,0,0)" stroke-width="1"/>
<line x1="171" y1="237" x2="171" y2="191" stroke="rgb(0,0,0)" stroke-width="1"/>
<line x1="163" y1="237" x2="179" y2="237" stroke="rgb(0,0,0)" stroke-width="1"/>
<line x1="163" y1="156" x2="179" y2="156" stroke="rgb(200,0,0)" stroke-width="1"/>
<rect width="16" height="70" x="183" y="121" style="fill:rgb(240,240,0);stroke:none"/>
<rect width="16" height="70" x="183" y="121" rx="0" ry="0" style="fill:none;stroke-width:1;stroke:rgb(0,0,0)"/>
<line x1="191" y1="98" x2="191" y2="121" stroke="rgb(0,0,0)" stroke-width="1"/>
<line x1="183" y1="98" x2="199" y2="98" stroke="rgb(0,0,0)" stroke-width="1"/>
<line x1="191" y1="237" x2="191" y2="191" stroke="rgb(0,0,0)" stroke-width="1"/>
<line x1="183" y1="237" x2="199" y2="237" stroke="rgb(0,0,0)" stroke-width="1"/>
<line x1="183" y1="156" x2="199" y2="156" stroke="rgb(200,0,0)" stroke-width="1"/>
<rect width="16" height="70" x="203" y="121" style="fill:rgb(240,240,0);stroke:none"/>
<rect width="16" height="70" x="203" y="121" rx="0" ry="0" style="fill:none;stroke-width:1;stroke:rgb(0,0,0)"/>
<line x1="211" y1="98" x2="211" y2="121" stroke="rgb(0,0,0)" stroke-width="1"/>
<line x1="203" y1="98" x2="219" y2="98" stroke="rgb(0,0,0)" stroke-width="1"/>
<line x1="211" y1="248" x2="211" y2="191" stroke="rgb(0,0,0)" stroke-width="1"/>
<line x1="203" y1="248" x2="219" y2="248" stroke="rgb(0,0,0)" stroke-width="1"/>
<line x1="203" y1="156" x2="219" y2="156" stroke="rgb(200,0,0)" stroke-width="1"/>
<rect width="16" height="70" x="223" y="121" style="fill:rgb(240,240,0);stroke:none"/>
<rect width="16" height="70" x="223" y="121" rx="0" ry="0" style="fill:none;stroke-width:1;stroke:rgb(0,0,0)"/>
<line x1="231" y1="98" x2="231" y2="121" stroke="rgb(0,0,0)" stroke-width="1"/>
<line x1="223" y1="98" x2="239" y2="98" stroke="rgb(0,0,0)" stroke-width="1"/>
<line x1="231" y1="237" x2="231" y2="191" stroke="rgb(0,0,0)" stroke-width="1"/>
<line x1="223" y1="237" x2="239" y2="237" stroke="rgb(0,0,0)" stroke-width="1"/>
<line x1="223" y1="156" x2="239" y2="156" stroke="rgb(200,0,0)" stroke-width="1"/>
<rect width="16" height="81" x="243" y="110" style="fill:rgb(240,240,0);stroke:none"/>
<rect width="16" height="81" x="243" y="110" rx="0" ry="0" style="fill:none;stroke-width:1;stroke:rgb(0,0,0)"/>
<line x1="251" y1="98" x2="251" y2="110" stroke="rgb(0,0,0)" stroke-width="1"/>
<line x1="243" y1="98" x2="259" y2="98" stroke="rgb(0,0,0)" stroke-width="1"/>
<line x1="251" y1="248" x2="251" y2="191" stroke="rgb(0,0,0)" stroke-width="1"/>
<line x1="243" y1="248" x2="259" y2="248" stroke="rgb(0,0,0)" stroke-width="1"/>
<line x1="243" y1="144" x2="259" y2="144" stroke="rgb(200,0,0)" stroke-width="1"/>
<rect width="16" height="81" x="263" y="110" style="fill:rgb(240,240,0);stroke:none"/>
<rect width="16" height="81" x="263" y="110" rx="0" ry="0" style="fill:none;stroke-width:1;stroke:rgb(0,0,0)"/>
<line x1="271" y1="98" x2="271" y2="110" stroke="rgb(0,0,0)" stroke-width="1"/>
<line x1="263" y1="98" x2="279" y2="98" stroke="rgb(0,0,0)" stroke-width="1"/>
<line x1="271" y1="248" x2="271" y2="191" stroke="rgb(0,0,0)" stroke-width="1"/>
<line x1="263" y1="248" x2="279" y2="248" stroke="rgb(0,0,0)" stroke-width="1"/>
<line x1="263" y1="156" x2="279" y2="156" stroke="rgb(200,0,0)" stroke-width="1"/>
<rect width="16" height="81" x="283" y="110" style="fill:rgb(240,240,0);stroke:none"/>
<rect width="16" height="81" x="283" y="110" rx="0" ry="0" style="fill:none;stroke-width:1;stroke:rgb(0,0,0)"/>
<line x1="291" y1="98" x2="291" y2="110" stroke="rgb(0,0,0)" stroke-width="1"/>
<line x1="283" y1="98" x2="299" y2="98" stroke="rgb(0,0,0)" stroke-width="1"/>
<line x1="291" y1="248" x2="291" y2="191" stroke="rgb(0,0,0)" stroke-width="1"/>
<line x1="283" y1="248" x2="299" y2="248" stroke="rgb(0,0,0)" stroke-width="1"/>
<line x1="283" y1="144" x2="299" y2="144" stroke="rgb(200,0,0)" stroke-width="1"/>
<rect width="16" height="69" x="303" y="110" style="fill:rgb(240,240,0);stroke:none"/>
<rect width="16" height="69" x="303" y="110" rx="0" ry="0" style="fill:none;stroke-width:1;stroke:rgb(0,0,0)"/>
<line x1="311" y1="87" x2="311" y2="110" stroke="rgb(0,0,0)" stroke-width="1"/>
<line x1="303" y1="87" x2="319" y2="87" stroke="rgb(0,0,0)" stroke-width="1"/>
<line x1="311" y1="248" x2="311" y2="179" stroke="rgb(0,0,0)" stroke-width="1"/>
<line x1="303" y1="248" x2="319" y2="248" stroke="rgb(0,0,0)" stroke-width="1"/>
<line x1="303" y1="144" x2="319" y2="144" stroke="rgb(200,0,0)" stroke-width="1"/>
<rect width="16" height="81" x="323" y="110" style="fill:rgb(240,240,0);stroke:none"/>
<rect width="16" height="81" x="323" y="110" rx="0" ry="0" style="fill:none;stroke-width:1;stroke:rgb(0,0,0)"/>
<line x1="331" y1="87" x2="331" y2="110" stroke="rgb(0,0,0)" stroke-width="1"/>
<line x1="323" y1="87" x2="339" y2="87" stroke="rgb(0,0,0)" stroke-width="1"/>
<line x1="331" y1="260" x2="331" y2="191" stroke="rgb(0,0,0)" stroke-width="1"/>
<line x1="323" y1="260" x2="339" y2="260" stroke="rgb(0,0,0)" stroke-width="1"/>
<line x1="323" y1="144" x2="339" y2="144" stroke="rgb(200,0,0)" stroke-width="1"/>
<rect width="16" height="81" x="343" y="110" style="fill:rgb(240,240,0);stroke:none"/>
<rect width="16" height="81" x="343" y="110" rx="0" ry="0" style="fill:none;stroke-width:1;stroke:rgb(0,0,0)"/>
<line x1="351" y1="87" x2="351" y2="110" stroke="rgb(0,0,0)" stroke-width="1"/>
<line x1="343" y1="87" x2="359" y2="87" stroke="rgb(0,0,0)" stroke-width="1"/>
<line x1="351" y1="260" x2="351" y2="191" stroke="rgb(0,0,0)" stroke-width="1"/>
<line x1="343" y1="260" x2="359" y2="260" stroke="rgb(0,0,0)" stroke-width="1"/>
<line x1="343" y1="144" x2="359" y2="144" stroke="rgb(200,0,0)" stroke-width="1"/>
<rect width="16" height="81" x="363" y="110" style="fill:rgb(240,240,0);stroke:none"/>
<rect width="16" height="81" x="363" y="110" rx="0" ry="0" style="fill:none;stroke-width:1;stroke:rgb(0,0,0)"/>
<line x1="371" y1="87" x2="371" y2="110" stroke="rgb(0,0,0)" stroke-width="1"/>
<line x1="363" y1="87" x2="379" y2="87" stroke="rgb(0,0,0)" stroke-width="1"/>
<line x1="371" y1="260" x2="371" y2="191" stroke="rgb(0,0,0)" stroke-width="1"/>
<line x1="363" y1="260" x2="379" y2="260" stroke="rgb(0,0,0)" stroke-width="1"/>
<line x1="363" y1="156" x2="379" y2="156" stroke="rgb(200,0,0)" stroke-width="1"/>
<rect width="16" height="81" x="383" y="110" style="fill:rgb(240,240,0);stroke:none"/>
<rect width="16" height="81" x="383" y="110" rx="0" ry="0" style="fill:none;stroke-width:1;stroke:rgb(0,0,0)"/>
<line x1="391" y1="87" x2="391" y2="110" stroke="rgb(0,0,0)" stroke-width="1"/>
<line x1="383" y1="87" x2="399" y2="87" stroke="rgb(0,0,0)" stroke-width="1"/>
<line x1="391" y1="260" x2="391" y2="191" stroke="rgb(0,0,0)" stroke-width="1"/>
<line x1="383" y1="260" x2="399" y2="260" stroke="rgb(0,0,0)" stroke-width="1"/>
<line x1="383" y1="156" x2="399" y2="156" stroke="rgb(200,0,0)" stroke-width="1"/>
<rect width="16" height="81" x="403" y="110" style="fill:rgb(240,240,0);stroke:none"/>
<rect width="16" height="81" x="403" y="110" rx="0" ry="0" style="fill:none;stroke-width:1;stroke:rgb(0,0,0)"/>
<line x1="411" y1="87" x2="411" y2="110" stroke="rgb(0,0,0)" stroke-width="1"/>
<line x1="403" y1="87" x2="419" y2="87" stroke="rgb(0,0,0)" stroke-width="1"/>
<line x1="411" y1="272" x2="411" y2="191" stroke="rgb(0,0,0)" stroke-width="1"/>
<line x1="403" y1="272" x2="419" y2="272" stroke="rgb(0,0,0)" stroke-width="1"/>
<line x1="403" y1="144" x2="419" y2="144" stroke="rgb(200,0,0)" stroke-width="1"/>
<rect width="16" height="81" x="423" y="110" style="fill:rgb(240,240,0);stroke:none"/>
<rect width="16" height="81" x="423" y="110" rx="0" ry="0" style="fill:none;stroke-width:1;stroke:rgb(0,0,0)"/>
<line x1="431" y1="87" x2="431" y2="110" stroke="rgb(0,0,0)" stroke-width="1"/>
<line x1="423" y1="87" x2="439" y2="87" stroke="rgb(0,0,0)" stroke-width="1"/>
<line x1="431" y1="272" x2="431" y2="191" stroke="rgb(0,0,0)" stroke-width="1"/>
<line x1="423" y1="272" x2="439" y2="272" stroke="rgb(0,0,0)" stroke-width="1"/>
<line x1="423" y1="144" x2="439" y2="144" stroke="rgb(200,0,0)" stroke-width="1"/>
<rect width="16" height="81" x="443" y="110" style="fill:rgb(240,240,0);stroke:none"/>
<rect width="16" height="81" x="443" y="110" rx="0" ry="0" style="fill:none;stroke-width:1;stroke:rgb(0,0,0)"/>
<line x1="451" y1="87" x2="451" y2="110" stroke="rgb(0,0,0)" stroke-width="1"/>
<line x1="443" y1="87" x2="459" y2="87" stroke="rgb(0,0,0)" stroke-width="1"/>
<line x1="451" y1="272" x2="451" y2="191" stroke="rgb(0,0,0)" stroke-width="1"/>
<line x1="443" y1="272" x2="459" y2="272" stroke="rgb(0,0,0)" stroke-width="1"/>
<line x1="443" y1="156" x2="459" y2="156" stroke="rgb(200,0,0)" stroke-width="1"/>
<rect width="16" height="81" x="463" y="110" style="fill:rgb(240,240,0);stroke:none"/>
<rect width="16" height="81" x="463" y="110" rx="0" ry="0" style="fill:none;stroke-width:1;stroke:rgb(0,0,0)"/>
<line x1="471" y1="87" x2="471" y2="110" stroke="rgb(0,0,0)" stroke-width="1"/>
<line x1="463" y1="87" x2="479" y2="87" stroke="rgb(0,0,0)" stroke-width="1"/>
<line x1="471" y1="283" x2="471" y2="191" stroke="rgb(0,0,0)" stroke-width="1"/>
<line x1="463" y1="283" x2="479" y2="283" stroke="rgb(0,0,0)" stroke-width="1"/>
<line x1="463" y1="144" x2="479" y2="144" stroke="rgb(200,0,0)" stroke-width="1"/>
<rect width="16" height="81" x="483" y="110" style="fill:rgb(240,240,0);stroke:none"/>
<rect width="16" height="81" x="483" y="110" rx="0" ry="0" style="fill:none;stroke-width:1;stroke:rgb(0,0,0)"/>
<line x1="491" y1="87" x2="491" y2="110" stroke="rgb(0,0,0)" stroke-width="1"/>
<line x1="483" y1="87" x2="499" y2="87" stroke="rgb(0,0,0)" stroke-width="1"/>
<line x1="491" y1="295" x2="491" y2="191" stroke="rgb(0,0,0)" stroke-width="1"/>
<line x1="483" y1="295" x2="499" y2="295" stroke="rgb(0,0,0)" stroke-width="1"/>
<line x1="483" y1="156" x2="499" y2="156" stroke="rgb(200,0,0)" stroke-width="1"/>
<rect width="16" height="81" x="503" y="110" style="fill:rgb(240,240,0);stroke:none"/>
<rect width="16" height="81" x="503" y="110" rx="0" ry="0" style="fill:none;stroke-width:1;stroke:rgb(0,0,0)"/>
<line x1="511" y1="87" x2="511" y2="110" stroke="rgb(0,0,0)" stroke-width="1"/>
<line x1="503" y1="87" x2="519" y2="87" stroke="rgb(0,0,0)" stroke-width="1"/>
<line x1="511" y1="295" x2="511" y2="191" stroke="rgb(0,0,0)" stroke-width="1"/>
<line x1="503" y1="295" x2="519" y2="295" stroke="rgb(0,0,0)" stroke-width="1"/>
<line x1="503" y1="156" x2="519" y2="156" stroke="rgb(200,0,0)" stroke-width="1"/>
<rect width="16" height="81" x="523" y="110" style="fill:rgb(240,240,0);stroke:none"/>
<rect width="16" height="81" x="523" y="110" rx="0" ry="0" style="fill:none;stroke-width:1;stroke:rgb(0,0,0)"/>
<line x1="531" y1="87" x2="531" y2="110" stroke="rgb(0,0,0)" stroke-width="1"/>
<line x1="523" y1="87" x2="539" y2="87" stroke="rgb(0,0,0)" stroke-width="1"/>
<line x1="531" y1="272" x2="531" y2="191" stroke="rgb(0,0,0)" stroke-width="1"/>
<line x1="523" y1="272" x2="539" y2="272" stroke="rgb(0,0,0)" stroke-width="1"/>
<line x1="523" y1="156" x2="539" y2="156" stroke="rgb(200,0,0)" stroke-width="1"/>
<rect width="16" height="81" x="543" y="110" style="fill:rgb(240,240,0);stroke:none"/>
<rect width="16" height="81" x="543" y="110" rx="0" ry="0" style="fill:none;stroke-width:1;stroke:rgb(0,0,0)"/>
<line x1="551" y1="87" x2="551" y2="110" stroke="rgb(0,0,0)" stroke-width="1"/>
<line x1="543" y1="87" x2="559" y2="87" stroke="rgb(0,0,0)" stroke-width="1"/>
<line x1="551" y1="306" x2="551" y2="191" stroke="rgb(0,0,0)" stroke-width="1"/>
<line x1="543" y1="306" x2="559" y2="306" stroke="rgb(0,0,0)" stroke-width="1"/>
<line x1="543" y1="156" x2="559" y2="156" stroke="rgb(200,0,0)" stroke-width="1"/>
<rect width="16" height="81" x="563" y="110" style="fill:rgb(240,240,0);stroke:none"/>
<rect width="16" height="81" x="563" y="110" rx="0" ry="0" style="fill:none;stroke-width:1;stroke:rgb(0,0,0)"/>
<line x1="571" y1="87" x2="571" y2="110" stroke="rgb(0,0,0)" stroke-width="1"/>
<line x1="563" y1="87" x2="579" y2="87" stroke="rgb(0,0,0)" stroke-width="1"/>
<line x1="571" y1="306" x2="571" y2="191" stroke="rgb(0,0,0)" stroke-width="1"/>
<line x1="563" y1="306" x2="579" y2="306" stroke="rgb(0,0,0)" stroke-width="1"/>
<line x1="563" y1="156" x2="579" y2="156" stroke="rgb(200,0,0)" stroke-width="1"/>
<rect width="16" height="81" x="583" y="110" style="fill:rgb(240,240,0);stroke:none"/>
<rect width="16" height="81" x="583" y="110" rx="0" ry="0" style="fill:none;stroke-width:1;stroke:rgb(0,0,0)"/>
<line x1="591" y1="87" x2="591" y2="110" stroke="rgb(0,0,0)" stroke-width="1"/>
<line x1="583" y1="87" x2="599" y2="87" stroke="rgb(0,0,0)" stroke-width="1"/>
<line x1="591" y1="295" x2="591" y2="191" stroke="rgb(0,0,0)" stroke-width="1"/>
<line x1="583" y1="295" x2="599" y2="295" stroke="rgb(0,0,0)" stroke-width="1"/>
<line x1="583" y1="156" x2="599" y2="156" stroke="rgb(200,0,0)" stroke-width="1"/>
<rect width="16" height="81" x="603" y="110" style="fill:rgb(240,240,0);stroke:none"/>
<rect width="16" height="81" x="603" y="110" rx="0" ry="0" style="fill:none;stroke-width:1;stroke:rgb(0,0,0)"/>
<line x1="611" y1="87" x2="611" y2="110" stroke="rgb(0,0,0)" stroke-width="1"/>
<line x1="603" y1="87" x2="619" y2="87" stroke="rgb(0,0,0)" stroke-width="1"/>
<line x1="611" y1="306" x2="611" y2="191" stroke="rgb(0,0,0)" stroke-width="1"/>
<line x1="603" y1="306" x2="619" y2="306" stroke="rgb(0,0,0)" stroke-width="1"/>
<line x1="603" y1="156" x2="619" y2="156" stroke="rgb(200,0,0)" stroke-width="1"/>
<rect width="16" height="81" x="623" y="110" style="fill:rgb(240,240,0);stroke:none"/>
<rect width="16" height="81" x="623" y="110" rx="0" ry="0" style="fill:none;stroke-width:1;stroke:rgb(0,0,0)"/>
<line x1="631" y1="87" x2="631" y2="110" stroke="rgb(0,0,0)" stroke-width="1"/>
<line x1="623" y1="87" x2="639" y2="87" stroke="rgb(0,0,0)" stroke-width="1"/>
<line x1="631" y1="341" x2="631" y2="191" stroke="rgb(0,0,0)" stroke-width="1"/>
<line x1="623" y1="341" x2="639" y2="341" stroke="rgb(0,0,0)" stroke-width="1"/>
<line x1="623" y1="156" x2="639" y2="156" stroke="rgb(200,0,0)" stroke-width="1"/>
<rect width="16" height="92" x="643" y="110" style="fill:rgb(240,240,0);stroke:none"/>
<rect width="16" height="92" x="643" y="110" rx="0" ry="0" style="fill:none;stroke-width:1;stroke:rgb(0,0,0)"/>
<line x1="651" y1="87" x2="651" y2="110" stroke="rgb(0,0,0)" stroke-width="1"/>
<line x1="643" y1="87" x2="659" y2="87" stroke="rgb(0,0,0)" stroke-width="1"/>
<line x1="651" y1="318" x2="651" y2="202" stroke="rgb(0,0,0)" stroke-width="1"/>
<line x1="643" y1="318" x2="659" y2="318" stroke="rgb(0,0,0)" stroke-width="1"/>
<line x1="643" y1="156" x2="659" y2="156" stroke="rgb(200,0,0)" stroke-width="1"/>
<rect width="16" height="92" x="663" y="110" style="fill:rgb(240,240,0);stroke:none"/>
<rect width="16" height="92" x="663" y="110" rx="0" ry="0" style="fill:none;stroke-width:1;stroke:rgb(0,0,0)"/>
<line x1="671" y1="87" x2="671" y2="110" stroke="rgb(0,0,0)" stroke-width="1"/>
<line x1="663" y1="87" x2="679" y2="87" stroke="rgb(0,0,0)" stroke-width="1"/>
<line x1="671" y1="352" x2="671" y2="202" stroke="rgb(0,0,0)" stroke-width="1"/>
<line x1="663" y1="352" x2="679" y2="352" stroke="rgb(0,0,0)" stroke-width="1"/>
<line x1="663" y1="156" x2="679" y2="156" stroke="rgb(200,0,0)" stroke-width="1"/>
<rect width="16" height="81" x="683" y="121" style="fill:rgb(240,240,0);stroke:none"/>
<rect width="16" height="81" x="683" y="121" rx="0" ry="0" style="fill:none;stroke-width:1;stroke:rgb(0,0,0)"/>
<line x1="691" y1="98" x2="691" y2="121" stroke="rgb(0,0,0)" stroke-width="1"/>
<line x1="683" y1="98" x2="699" y2="98" stroke="rgb(0,0,0)" stroke-width="1"/>
<line x1="691" y1="376" x2="691" y2="202" stroke="rgb(0,0,0)" stroke-width="1"/>
<line x1="683" y1="376" x2="699" y2="376" stroke="rgb(0,0,0)" stroke-width="1"/>
<line x1="683" y1="156" x2="699" y2="156" stroke="rgb(200,0,0)" stroke-width="1"/>
<rect width="16" height="69" x="703" y="133" style="fill:rgb(240,240,0);stroke:none"/>
<rect width="16" height="69" x="703" y="133" rx="0" ry="0" style="fill:none;stroke-width:1;stroke:rgb(0,0,0)"/>
<line x1="711" y1="98" x2="711" y2="133" stroke="rgb(0,0,0)" stroke-width="1"/>
<line x1="703" y1="98" x2="719" y2="98" stroke="rgb(0,0,0)" stroke-width="1"/>
<line x1="711" y1="376" x2="711" y2="202" stroke="rgb(0,0,0)" stroke-width="1"/>
<line x1="703" y1="376" x2="719" y2="376" stroke="rgb(0,0,0)" stroke-width="1"/>
<line x1="703" y1="156" x2="719" y2="156" stroke="rgb(200,0,0)" stroke-width="1"/>
<rect width="16" height="81" x="723" y="121" style="fill:rgb(240,240,0);stroke:none"/>
<rect width="16" height="81" x="723" y="121" rx="0" ry="0" style="fill:none;stroke-width:1;stroke:rgb(0,0,0)"/>
<line x1="731" y1="98" x2="731" y2="121" stroke="rgb(0,0,0)" stroke-width="1"/>
<line x1="723" y1="98" x2="739" y2="98" stroke="rgb(0,0,0)" stroke-width="1"/>
<line x1="731" y1="352" x2="731" y2="202" stroke="rgb(0,0,0)" stroke-width="1"/>
<line x1="723" y1="352" x2="739" y2="352" stroke="rgb(0,0,0)" stroke-width="1"/>
<line x1="723" y1="156" x2="739" y2="156" stroke="rgb(200,0,0)" stroke-width="1"/>
<rect width="16" height="93" x="743" y="121" style="fill:rgb(240,240,0);stroke:none"/>
<rect width="16" height="93" x="743" y="121" rx="0" ry="0" style="fill:none;stroke-width:1;stroke:rgb(0,0,0)"/>
<line x1="751" y1="98" x2="751" y2="121" stroke="rgb(0,0,0)" stroke-width="1"/>
<line x1="743" y1="98" x2="759" y2="98" stroke="rgb(0,0,0)" stroke-width="1"/>
<line x1="751" y1="376" x2="751" y2="214" stroke="rgb(0,0,0)" stroke-width="1"/>
<line x1="743" y1="376" x2="759" y2="376" stroke="rgb(0,0,0)" stroke-width="1"/>
<line x1="743" y1="168" x2="759" y2="168" stroke="rgb(200,0,0)" stroke-width="1"/>
<rect width="16" height="93" x="763" y="121" style="fill:rgb(240,240,0);stroke:none"/>
<rect width="16" height="93" x="763" y="121" rx="0" ry="0" style="fill:none;stroke-width:1;stroke:rgb(0,0,0)"/>
<line x1="771" y1="98" x2="771" y2="121" stroke="rgb(0,0,0)" stroke-width="1"/>
<line x1="763" y1="98" x2="779" y2="98" stroke="rgb(0,0,0)" stroke-width="1"/>
<line x1="771" y1="352" x2="771" y2="214" stroke="rgb(0,0,0)" stroke-width="1"/>
<line x1="763" y1="352" x2="779" y2="352" stroke="rgb(0,0,0)" stroke-width="1"/>
<line x1="763" y1="168" x2="779" y2="168" stroke="rgb(200,0,0)" stroke-width="1"/>
<line x1="31" y1="251" x2="51" y2="202" stroke="rgb(0,0,200)" stroke-width="1"/>
<line x1="51" y1="202" x2="71" y2="195" stroke="rgb(0,0,200)" stroke-width="1"/>
<line x1="71" y1="195" x2="91" y2="182" stroke="rgb(0,0,200)" stroke-width="1"/>
<line x1="91" y1="182" x2="111" y2="182" stroke="rgb(0,0,200)" stroke-width="1"/>
<line x1="111" y1="182" x2="131" y2="178" stroke="rgb(0,0,200)" stroke-width="1"/>
<line x1="131" y1="178" x2="151" y2="177" stroke="rgb(0,0,200)" stroke-width="1"/>
<line x1="151" y1="177" x2="171" y2="176" stroke="rgb(0,0,200)" stroke-width="1"/>
<line x1="171" y1="176" x2="191" y2="174" stroke="rgb(0,0,200)" stroke-width="1"/>
<line x1="191" y1="174" x2="211" y2="174" stroke="rgb(0,0,200)" stroke-width="1"/>
<line x1="211" y1="174" x2="231" y2="174" stroke="rgb(0,0,200)" stroke-width="1"/>
<line x1="231" y1="174" x2="251" y2="172" stroke="rgb(0,0,200)" stroke-width="1"/>
<line x1="251" y1="172" x2="271" y2="173" stroke="rgb(0,0,200)" stroke-width="1"/>
<line x1="271" y1="173" x2="291" y2="171" stroke="rgb(0,0,200)" stroke-width="1"/>
<line x1="291" y1="171" x2="311" y2="171" stroke="rgb(0,0,200)" stroke-width="1"/>
<line x1="311" y1="171" x2="331" y2="174" stroke="rgb(0,0,200)" stroke-width="1"/>
<line x1="331" y1="174" x2="351" y2="173" stroke="rgb(0,0,200)" stroke-width="1"/>
<line x1="351" y1="173" x2="371" y2="176" stroke="rgb(0,0,200)" stroke-width="1"/>
<line x1="371" y1="176" x2="391" y2="176" stroke="rgb(0,0,200)" stroke-width="1"/>
<line x1="391" y1="176" x2="411" y2="173" stroke="rgb(0,0,200)" stroke-width="1"/>
<line x1="411" y1="173" x2="431" y2="177" stroke="rgb(0,0,200)" stroke-width="1"/>
<line x1="431" y1="177" x2="451" y2="176" stroke="rgb(0,0,200)" stroke-width="1"/>
<line x1="451" y1="176" x2="471" y2="176" stroke="rgb(0,0,200)" stroke-width="1"/>
<line x1="471" y1="176" x2="491" y2="179" stroke="rgb(0,0,200)" stroke-width="1"/>
<line x1="491" y1="179" x2="511" y2="181" stroke="rgb(0,0,200)" stroke-width="1"/>
<line x1="511" y1="181" x2="531" y2="178" stroke="rgb(0,0,200)" stroke-width="1"/>
<line x1="531" y1="178" x2="551" y2="182" stroke="rgb(0,0,200)" stroke-width="1"/>
<line x1="551" y1="182" x2="571" y2="182" stroke="rgb(0,0,200)" stroke-width="1"/>
<line x1="571" y1="182" x2="591" y2="183" stroke="rgb(0,0,200)" stroke-width="1"/>
<line x1="591" y1="183" x2="611" y2="182" stroke="rgb(0,0,200)" stroke-width="1"/>
<line x1="611" y1="182" x2="631" y2="186" stroke="rgb(0,0,200)" stroke-width="1"/>
<line x1="631" y1="186" x2="651" y2="185" stroke="rgb(0,0,200)" stroke-width="1"/>
<line x1="651" y1="185" x2="671" y2="187" stroke="rgb(0,0,200)" stroke-width="1"/>
<line x1="671" y1="187" x2="691" y2="191" stroke="rgb(0,0,200)" stroke-width="1"/>
<line x1="691" y1="191" x2="711" y2="197" stroke="rgb(0,0,200)" stroke-width="1"/>
<line x1="711" y1="197" x2="731" y2="192" stroke="rgb(0,0,200)" stroke-width="1"/>
<line x1="731" y1="192" x2="751" y2="197" stroke="rgb(0,0,200)" stroke-width="1"/>
<line x1="751" y1="197" x2="771" y2="196" stroke="rgb(0,0,200)" stroke-width="1"/>
</svg>
